<svg width="26" height="24" viewBox="0 0 26 24" fill="none" xmlns="http://www.w3.org/2000/svg">
<path d="M11.5001 23.9941C5.15939 23.9941 0 18.8349 0 12.4942C0 6.15353 5.15939 0.994141 11.5001 0.994141C13.705 0.994141 15.8501 1.62241 17.7037 2.81214C18.0676 3.04645 18.1743 3.53153 17.94 3.8964C17.7049 4.26126 17.2208 4.36674 16.8559 4.13262C15.2563 3.10484 13.4039 2.56233 11.5001 2.56233C6.02389 2.56233 1.56819 7.01803 1.56819 12.4942C1.56819 17.9703 6.02389 22.426 11.5001 22.426C16.9761 22.426 21.4318 17.9703 21.4318 12.4942C21.4318 12.1669 21.4161 11.8428 21.3859 11.5241C21.3441 11.0922 21.6598 10.7095 22.0905 10.6678C22.5233 10.628 22.9049 10.9417 22.9468 11.3725C22.9822 11.7415 23 12.1158 23 12.4942C23 18.8349 17.8408 23.9941 11.5001 23.9941V23.9941Z" fill="#A4A4A4"/>
<path d="M12.8068 15.1078C12.6062 15.1078 12.4054 15.0314 12.2528 14.8778L7.54826 10.1733C7.24197 9.86681 7.24197 9.37025 7.54826 9.06396C7.85454 8.75767 8.35111 8.75767 8.6574 9.06396L12.808 13.2145L23.7527 2.26957C24.0592 1.96328 24.5558 1.96328 24.8621 2.26957C25.1683 2.57586 25.1683 3.07242 24.8621 3.37871L13.362 14.8788C13.2082 15.0314 13.0076 15.1078 12.8068 15.1078V15.1078Z" fill="#A4A4A4"/>
</svg>
