<svg width="163" height="145" viewBox="0 0 163 145" fill="none" xmlns="http://www.w3.org/2000/svg">
<path d="M26.9372 95.3641L16.1819 58.7959C15.8234 57.0034 15.7517 53.3465 18.3329 53.0597C21.5595 52.7012 56.6937 41.2289 101.149 70.9853C145.605 100.742 157.37 70.9853 153.492 95.3641M26.9372 95.3641V104.685C175.002 102.176 150.982 111.139 153.492 95.3641M26.9372 95.3641H153.492" stroke="#00A3D3" stroke-width="4"/>
<path d="M105.564 2H106.773C110.086 2 112.773 4.68629 112.773 8V36.0022H99.564V8C99.564 4.6863 102.25 2 105.564 2Z" stroke="#00A3D3" stroke-width="4"/>
<path d="M50.2406 42.3045V50.1918C78.348 53.6335 103.3 69.0734 112.263 76.3631C114.534 65.8468 119.218 44.0254 119.792 40.8705C120.365 37.7156 117.641 36.6879 116.207 36.5684H55.2598C50.6708 36.5684 50.0016 40.3925 50.2406 42.3045Z" stroke="#00A3D3" stroke-width="4"/>
<circle cx="36.2584" cy="71.3437" r="6.96279" stroke="#00A3D3" stroke-width="4"/>
<circle cx="60.6373" cy="71.3437" r="6.96279" stroke="#00A3D3" stroke-width="4"/>
<path d="M53.5 128.788C34.2814 136.845 12.6667 133.288 1 128.788C5.66667 141.788 36.4102 148.542 48.5 141.288C68.5 129.288 92 131.121 102 134.288C91.6667 127.955 68.5 122.5 53.5 128.788Z" fill="#00A3D3" stroke="#00A3D3"/>
<path d="M103 132.434C84.163 118.715 56 123 41 128.848C62.5 109.5 76.5 107.934 93.5 113.848C127.5 127.934 147.833 131.348 162.5 128.848C149.5 139.015 123 147 103 132.434Z" fill="#00A3D3" stroke="#00A3D3"/>
</svg>
