<svg width="332" height="319" viewBox="0 0 332 319" fill="none" xmlns="http://www.w3.org/2000/svg">
<path d="M103.07 293.063H89.8348V303.886H105.21V307.18H85.8075V276.639H105V279.953H89.8348V289.77H103.07V293.063ZM127.087 299.209H114.292L111.419 307.18H107.265L118.928 276.639H122.452L134.135 307.18H130.003L127.087 299.209ZM115.509 295.895H125.892L120.69 281.611L115.509 295.895ZM160.459 297.489C160.082 300.719 158.886 303.215 156.872 304.977C154.873 306.725 152.209 307.599 148.881 307.599C145.273 307.599 142.378 306.306 140.197 303.719C138.029 301.132 136.946 297.671 136.946 293.336V290.399C136.946 287.561 137.449 285.064 138.456 282.911C139.477 280.758 140.917 279.107 142.777 277.961C144.637 276.8 146.79 276.22 149.237 276.22C152.481 276.22 155.082 277.129 157.04 278.947C158.998 280.751 160.138 283.254 160.459 286.456H156.411C156.061 284.023 155.299 282.261 154.125 281.17C152.964 280.079 151.335 279.534 149.237 279.534C146.664 279.534 144.644 280.485 143.175 282.387C141.721 284.288 140.994 286.994 140.994 290.504V293.462C140.994 296.776 141.686 299.412 143.07 301.369C144.455 303.327 146.392 304.306 148.881 304.306C151.118 304.306 152.831 303.803 154.02 302.796C155.222 301.775 156.019 300.006 156.411 297.489H160.459ZM182.84 299.209H170.045L167.171 307.18H163.018L174.68 276.639H178.204L189.888 307.18H185.756L182.84 299.209ZM171.261 295.895H181.644L176.442 281.611L171.261 295.895ZM193.999 307.18V276.639H202.62C205.277 276.639 207.626 277.227 209.668 278.401C211.709 279.576 213.282 281.247 214.387 283.414C215.506 285.582 216.072 288.071 216.086 290.882V292.832C216.086 295.713 215.527 298.237 214.408 300.404C213.303 302.572 211.716 304.236 209.647 305.397C207.591 306.557 205.193 307.152 202.452 307.18H193.999ZM198.026 279.953V303.886H202.263C205.368 303.886 207.78 302.922 209.5 300.992C211.234 299.062 212.101 296.314 212.101 292.748V290.966C212.101 287.498 211.283 284.806 209.647 282.89C208.024 280.96 205.717 279.981 202.725 279.953H198.026ZM239.453 293.063H226.217V303.886H241.592V307.18H222.19V276.639H241.382V279.953H226.217V289.77H239.453V293.063ZM251.807 276.639L261.791 301.558L271.776 276.639H276.999V307.18H272.971V295.286L273.349 282.45L263.323 307.18H260.239L250.234 282.512L250.633 295.286V307.18H246.605V276.639H251.807ZM292.835 291.972L300.806 276.639H305.378L294.849 295.79V307.18H290.821V295.79L280.292 276.639H284.906L292.835 291.972Z" fill="#00A3D3"/>
<path d="M55 302.5C55.1 302.7 55.2 302.8 55.3 302.8H56.5C56.4 303.5 56.3 305.3 57.3 307.6C58 309.3 59.2 310.8 60.7 312.1C62.6 313.8 65.2 315.2 68.4 316.4C69.4 316.7 71 317.4 71.2 317.9L71.4 318.2L71.6 317.9C71.9 317.4 73.5 316.7 74.4 316.4C77.6 315.3 80.1 313.8 82.1 312.1C83.7 310.7 84.8 309.2 85.5 307.6C86.5 305.3 86.4 303.5 86.3 302.8H87.5C87.5 302.8 87.7 302.7 87.8 302.5C88 301.9 87.3 300.4 85.7 297.9V297.8L85.5 297.5L85.3 297.8V297.9C83.7 300.3 83 301.9 83.2 302.5C83.3 302.7 83.4 302.8 83.5 302.8H84.7C84.3 306 82.4 308.5 79.2 310.1C77.2 311.2 75.2 311.6 74.5 311.7C73.5 307.3 73.3 297.2 73.3 291.4H79.9C80.2 291.6 80.5 291.8 80.9 291.8C81.7 291.8 82.4 291.1 82.4 290.3C82.4 289.5 81.7 288.8 80.9 288.8C80.5 288.8 80.2 288.9 79.9 289.2H73.3C73.3 288.3 73.3 287.6 73.3 287.2H73.6H73.8V287V286C74.1 285.9 74.4 285.8 74.4 285.5C74.4 285.2 74.1 285 73.4 284.9V284.7V284.2V284.1L73.3 284C74.3 283.3 74.8 282.2 74.8 281C74.8 279 73.2 277.4 71.2 277.4C69.2 277.4 67.6 279 67.6 281C67.6 282.2 68.2 283.3 69.1 284L69 284.1V284.2V284.7V284.9C68.3 285 68 285.2 68 285.5C68 285.8 68.3 285.9 68.6 286V286.8V287H68.8H69.1C69.1 287.4 69.1 288.1 69.1 289H62.5C62.2 288.8 61.9 288.6 61.5 288.6C60.7 288.6 60 289.3 60 290.1C60 290.9 60.7 291.6 61.5 291.6C61.9 291.6 62.2 291.5 62.5 291.2H69.1C69.1 297 69 307.1 67.9 311.5C67.3 311.4 65.3 311 63.2 309.9C60 308.2 58.2 305.8 57.7 302.6H58.9C58.9 302.6 59.1 302.5 59.2 302.3C59.4 301.7 58.7 300.2 57.1 297.7V297.6L56.9 297.3L56.7 297.6V297.7C55.5 300.3 54.8 301.8 55 302.5ZM73.5 278.6C73.4 278.6 73.4 278.5 73.3 278.5C73.2 278.5 73.1 278.4 73 278.4C72.9 278.4 72.8 278.3 72.7 278.3C72.6 278.3 72.6 278.3 72.5 278.2C72.4 278.2 72.4 278.2 72.3 278.2C72.2 278.2 72 278.1 71.9 278.1C71.8 278.1 71.8 278.1 71.7 278.1H71.5H71.4H71.3C71.2 278.1 71.2 278.1 71.1 278.1C71 278.1 70.8 278.1 70.7 278.2C70.6 278.2 70.4 278.3 70.3 278.3C70.2 278.3 70.2 278.3 70.1 278.4C70 278.4 70 278.4 69.9 278.5C69.8 278.5 69.7 278.6 69.6 278.6C69.5 278.6 69.5 278.7 69.4 278.7C69.3 278.8 69.2 278.8 69.2 278.8C69.2 278.8 69.3 278.8 69.4 278.7C69.5 278.7 69.5 278.6 69.6 278.6C69.7 278.5 69.8 278.5 69.9 278.4C69.9 278.4 70 278.3 70.1 278.3C70.2 278.3 70.2 278.2 70.3 278.2C70.4 278.2 70.5 278.1 70.7 278.1C70.8 278.1 70.8 278.1 70.9 278C71 278 71 278 71.1 278C71.2 278 71.2 278 71.3 278H71.4H71.5H71.7C71.8 278 71.9 278 71.9 278C72 278 72.2 278.1 72.3 278.1C72.4 278.1 72.4 278.1 72.5 278.2C72.6 278.2 72.6 278.2 72.7 278.3C72.8 278.3 72.8 278.4 72.9 278.4C73 278.4 73 278.5 73.1 278.5C73.2 278.6 73.3 278.6 73.4 278.7C73.4 278.5 73.5 278.5 73.5 278.6C73.6 278.6 73.6 278.6 73.6 278.7C73.6 278.7 73.5 278.7 73.5 278.6ZM72.3 282.9C71.8 282.6 71.6 282.5 71.5 282.5C71.4 282.5 71.2 282.5 70.7 282.9C70 282.6 69.5 281.9 69.5 281.1C69.5 280 70.4 279.1 71.5 279.1C72.6 279.1 73.5 280 73.5 281.1C73.5 281.8 73 282.6 72.3 282.9ZM72.8 315.1L73.1 314.5C73.9 312.9 73.6 311.9 73.6 311.9C72.5 307 73 293.1 73.1 291.2C73.1 291.1 73.3 291.1 73.3 291.2C73.3 293.1 73.1 307 74.3 311.9V312C75.7 311.8 84.5 310.2 85.2 302.4H85.1H83.7C83.7 302.4 83 302.2 85.6 298L85.7 297.8V297.9C85.9 299.1 88.3 311.5 72.8 315.1ZM62.4 289.7C62.4 289.7 62.4 289.8 62.3 289.8C62.3 289.9 62.3 289.9 62.2 290V290.1V290.2C62.2 290.3 62.2 290.3 62.3 290.4C62.3 290.5 62.4 290.6 62.4 290.7C62.5 290.9 62.5 291 62.5 291C62.5 291 62.4 290.9 62.3 290.8L62.2 290.7L62.1 290.6C62.1 290.5 62 290.5 62 290.4V290.3C62 290.3 62 290.3 62 290.2C62 290.1 62 290 62.1 290C62.1 289.9 62.2 289.9 62.2 289.8C62.2 289.7 62.3 289.7 62.4 289.7V289.6C62.5 289.5 62.6 289.4 62.6 289.4H73.1C73.1 288.9 73.1 287.8 73.1 287.3H73H72.9V287.2C72.9 286.8 72.9 286.5 72.9 286.1V286C73.1 285.9 73.2 285.7 73.2 285.6C73.2 285.5 73.2 285.4 73.1 285.4L73 285.3C73 285.3 73 285.3 73 285.2V285.1V284.4C72.5 283.9 72.1 283.4 71.7 282.9C72.2 283.4 72.7 283.8 73.2 284.3V285C73.2 285 73.2 285 73.3 285.1L73.4 285.2C73.5 285.3 73.5 285.4 73.5 285.6C73.5 285.7 73.5 285.9 73.4 286C73.3 286.1 73.3 286.2 73.2 286.2C73.2 286.5 73.2 286.9 73.2 287.2H73.4C73.4 287.2 73.4 288.6 73.4 289.4H80.5C80.5 289.4 80.6 289.5 80.7 289.6L80.8 289.7L80.9 289.8C80.9 289.9 81 289.9 81 290V290.1C81 290.1 81 290.1 81 290.2C81 290.3 81 290.4 80.9 290.4C80.9 290.5 80.8 290.5 80.8 290.6C80.8 290.7 80.7 290.7 80.7 290.7L80.6 290.8C80.5 291 80.4 291 80.4 291C80.4 291 80.4 290.9 80.5 290.7C80.5 290.6 80.6 290.5 80.6 290.4C80.6 290.3 80.6 290.3 80.7 290.2V290.1V290C80.7 289.9 80.7 289.9 80.6 289.8C80.6 289.8 80.6 289.7 80.5 289.7H62.4ZM59 302C58.7 300.1 57.4 298.1 57.4 298.1C57.4 298 57.4 298 57.4 298L57.5 298.2C60.1 302.4 59.4 302.6 59.4 302.6H58H57.9C58.5 309.7 65.9 311.7 68.3 312.2V312.9C60.5 311.4 58.1 306.4 57.5 302.6C57.5 302.5 57.4 302.4 57.4 302.3C57.3 301.9 59 302.2 59 302Z" fill="#00A3D3"/>
<path d="M69.3 293.3C69.1 293.4 68.9 293.5 68.6 293.5C68.3 293.6 68 293.7 67.7 293.8C67.6 293.8 67.4 293.8 67.3 293.8C67.1 293.7 66.9 293.7 66.7 293.5C66.5 293.4 66.4 293.2 66.2 293.1C66.4 293.1 66.6 293 66.8 293C67 292.9 67.3 292.9 67.5 292.8C67.6 292.8 67.8 292.7 67.9 292.7C68 292.7 68.2 292.6 68.3 292.6C68.5 292.6 68.6 292.6 68.8 292.6C69 292.6 69.1 292.6 69.2 292.7H69.3C69.3 292.9 69.3 293 69.3 293.2C69.4 293.3 69.4 293.3 69.3 293.3Z" fill="white"/>
<path d="M69.2 294.7C69.1 294.7 68.9 294.7 68.8 294.7C68.6 294.7 68.4 294.6 68.2 294.5C68 294.4 67.9 294.3 67.7 294.1C68 294 68.3 293.9 68.6 293.8C68.9 293.7 69.2 293.6 69.5 293.5C69.5 293.8 69.5 294.2 69.5 294.6C69.4 294.6 69.3 294.6 69.2 294.7Z" fill="white"/>
<path d="M69.2 294.9C69.3 294.9 69.4 294.8 69.5 294.8C69.5 294.9 69.5 295 69.5 295.2C69.4 295.1 69.3 295 69.2 294.9Z" fill="white"/>
<path d="M60.5 317L60.8 316.9L60.5 317Z" fill="white"/>
<path d="M77.9 304.2C77.9 304.1 77.8 304.1 77.8 304C77.7 303.9 77.6 303.7 77.6 303.6C77.5 303.5 77.5 303.4 77.5 303.3V303.2V303.1C77.5 303 77.5 303 77.5 302.9C77.5 302.8 77.5 302.8 77.5 302.7C77.5 302.6 77.5 302.6 77.6 302.5L77.7 302.6L77.8 302.7C77.9 302.8 77.9 302.8 78 302.9C78.2 303 78.4 303.2 78.5 303.4C78.6 303.5 78.6 303.5 78.6 303.6C78.6 303.7 78.7 303.7 78.7 303.8C78.8 303.9 78.8 304.1 78.9 304.2C79 304.4 79 304.5 79 304.7C79 304.8 79 305 79 305.1C79 305.2 79 305.4 78.9 305.5C78.9 305.6 78.8 305.7 78.8 305.8C78.7 306 78.6 306.1 78.5 306.2C78.5 306.1 78.5 306.1 78.5 306C78.5 305.8 78.5 305.6 78.4 305.4C78.4 305.3 78.4 305.3 78.3 305.2C78.2 305 78.1 304.8 78.1 304.7C78 304.3 78 304.3 77.9 304.2Z" fill="white"/>
<path d="M74.2 306.8C74.3 306.7 74.5 306.7 74.7 306.6C74.7 306.8 74.6 307 74.6 307.2C74.6 307.3 74.6 307.4 74.5 307.6C74.5 307.7 74.4 307.8 74.4 308C74.4 308.1 74.3 308.3 74.3 308.4C74.3 308.5 74.2 308.6 74.1 308.8C74 308.2 74 307.7 73.9 307C74 306.8 74.1 306.8 74.2 306.8Z" fill="white"/>
<path d="M65 289.5C65.1 289.5 65.2 289.6 65.3 289.6C65.4 289.6 65.6 289.7 65.7 289.8C65.8 289.9 65.9 289.9 66 290H63.7C63.7 289.9 63.6 289.9 63.6 289.8C63.5 289.7 63.5 289.6 63.5 289.5H65C64.9 289.4 64.9 289.4 65 289.5Z" fill="white"/>
<path d="M67.2 291.8C67.3 291.8 67.4 291.8 67.4 291.8C67.5 291.8 67.6 291.8 67.6 291.8C67.9 291.8 68.2 291.9 68.4 292.1C68.5 292.2 68.6 292.3 68.7 292.4C68.6 292.4 68.6 292.4 68.5 292.4C68.2 292.5 67.8 292.6 67.4 292.7C67.2 292.8 66.9 292.8 66.7 292.9C66.5 292.9 66.4 293 66.2 293C66.1 293 65.9 293 65.8 292.9C65.7 292.9 65.6 292.8 65.6 292.8C65.5 292.7 65.4 292.7 65.3 292.6C65.2 292.5 65 292.3 64.9 292.1C64.9 292.1 64.9 292.1 65 292.1C65.3 292.1 65.6 292.1 65.9 292.1C66.1 292.1 66.2 292.1 66.4 292C66.6 292 66.7 292 66.9 291.9C67 291.8 67.1 291.8 67.2 291.8Z" fill="white"/>
<path d="M74.6 307.9C74.7 307.7 74.7 307.4 74.7 307.2C74.7 307.1 74.7 307 74.7 307C74.7 306.9 74.7 306.8 74.7 306.8C74.7 306.7 74.8 306.6 74.9 306.5C75 306.4 75.1 306.2 75.3 306.1C75.4 306 75.6 305.9 75.7 305.8C75.7 306.1 75.7 306.4 75.7 306.7C75.7 306.9 75.7 307.1 75.6 307.4C75.6 307.6 75.5 307.8 75.5 308C75.5 308.1 75.4 308.2 75.4 308.2C75.4 308.3 75.3 308.4 75.3 308.4C75.2 308.5 75.1 308.7 75 308.8C74.9 308.9 74.7 309 74.6 309.1C74.5 309.2 74.3 309.2 74.2 309.2L74.3 309.1C74.4 308.7 74.5 308.3 74.6 307.9Z" fill="white"/>
<path d="M67.5 291.5C67.4 291.5 67.4 291.5 67.5 291.5C67.2 291.5 67 291.5 66.8 291.6C66.7 291.6 66.7 291.6 66.6 291.6C66.4 291.6 66.2 291.7 66 291.7C65.8 291.7 65.7 291.7 65.5 291.7C65.3 291.7 65.2 291.7 65 291.7C64.9 291.7 64.8 291.6 64.6 291.5C64.6 291.5 64.5 291.5 64.5 291.4L67.5 291.5Z" fill="white"/>
<path d="M60.9 313.6C61.1 313.7 61.3 313.8 61.5 313.9C61.6 314 61.8 314.1 61.9 314.2C62.1 314.4 62.3 314.6 62.4 314.9C62.5 315 62.5 315.1 62.5 315.3C62.5 315.3 62.4 315.3 62.4 315.2C62.2 315.1 62.1 315.1 61.9 315C61.7 315 61.5 314.9 61.4 314.9C61.2 314.8 60.9 314.8 60.7 314.7C60.5 314.6 60.4 314.6 60.2 314.5C60.1 314.4 60 314.3 59.9 314.2C59.8 314 59.7 313.8 59.6 313.6C59.5 313.4 59.5 313.2 59.5 312.9C59.8 313.1 60 313.2 60.3 313.4C60.5 313.5 60.7 313.6 60.9 313.6Z" fill="white"/>
<path d="M73.4 307.2C73.3 307.5 73.2 307.8 73.1 308C73.1 308.1 73.1 308.1 73 308.2C73 307.9 73 307.6 72.9 307.3C73.1 307.3 73.2 307.2 73.4 307.2Z" fill="white"/>
<path d="M61.4 308.4C61.5 308.3 61.6 308.3 61.7 308.2C61.8 308.2 61.9 308.1 62 308.1C62.1 308.1 62.2 308.1 62.4 308.1C62.3 308.3 62.2 308.5 62.1 308.6C62 308.8 61.9 309 61.9 309.1C61.6 308.9 61.4 308.7 61.2 308.5C61.3 308.5 61.4 308.5 61.4 308.4Z" fill="white"/>
<path d="M67.9 310.4C67.7 310.4 67.6 310.4 67.5 310.3C67.6 310.3 67.6 310.2 67.6 310.2C67.7 310.1 67.9 310 68 309.8C68.1 309.7 68.2 309.5 68.4 309.4C68.5 309.2 68.7 309.1 68.8 308.9C68.7 309.4 68.7 309.8 68.6 310.3C68.5 310.3 68.5 310.3 68.4 310.4C68.3 310.3 68.1 310.4 67.9 310.4Z" fill="white"/>
<path d="M62.3 309.1C62.3 309 62.4 308.9 62.5 308.8C62.6 308.6 62.7 308.5 62.8 308.3C62.9 308.2 63 308.1 63.2 308C63.4 307.9 63.6 307.9 63.8 307.8C64 307.8 64.2 307.8 64.5 307.9C64.3 308.1 64.1 308.4 63.9 308.6C63.6 309 63.4 309.4 63.2 309.7C63.2 309.8 63.1 309.8 63.1 309.8C62.8 309.6 62.6 309.5 62.4 309.3C62.2 309.3 62.2 309.2 62.3 309.1Z" fill="white"/>
<path d="M66 309.8C65.9 309.9 65.7 310 65.5 310C65.3 310 65.2 310.1 65 310.1C64.9 310.1 64.8 310.1 64.8 310.1H64.7H64.6H64.5C64.4 310.1 64.4 310.1 64.3 310.1L64.4 310C64.5 309.9 64.5 309.9 64.6 309.8V309.7H64.7C64.9 309.6 65 309.5 65.1 309.3C65.3 309.1 65.5 309 65.6 308.8C65.7 308.7 65.8 308.6 66 308.5C66.1 308.4 66.2 308.4 66.4 308.3C66.5 308.3 66.5 308.3 66.6 308.3C66.7 308.3 66.8 308.3 66.9 308.3C67.1 308.3 67.2 308.3 67.4 308.4C67.2 308.6 67 308.8 66.9 309C66.8 309.1 66.7 309.3 66.6 309.4C66.5 309.5 66.4 309.6 66.3 309.7C66.2 309.7 66.1 309.7 66 309.8Z" fill="white"/>
<path d="M68.2 309.3C68 309.5 67.8 309.7 67.6 309.9C67.5 310 67.3 310.1 67.2 310.2C67 310.3 66.8 310.3 66.5 310.3C66.4 310.3 66.3 310.3 66.2 310.3C66 310.3 65.9 310.3 65.8 310.2C65.9 310.2 65.9 310.1 65.9 310.1C66.1 310 66.2 309.9 66.4 309.7C66.5 309.7 66.5 309.6 66.6 309.6C66.7 309.5 66.9 309.3 67 309.2C67.2 309 67.4 308.7 67.6 308.5C67.7 308.4 67.8 308.4 67.9 308.3C68.1 308.2 68.2 308.2 68.4 308.2C68.5 308.2 68.7 308.2 68.8 308.2C68.8 308.3 68.8 308.4 68.8 308.4C68.7 308.5 68.7 308.6 68.6 308.7C68.5 308.9 68.4 309.1 68.2 309.3Z" fill="white"/>
<path d="M63.8 308.9C64 308.6 64.2 308.4 64.5 308.2C64.5 308.2 64.6 308.1 64.7 308.1H64.8H64.9H65C65 308.1 65 308.1 65.1 308.1H65.2C65.3 308.1 65.4 308.1 65.5 308.1C65.7 308.1 65.8 308.2 66 308.2C65.9 308.3 65.7 308.5 65.6 308.6C65.4 308.8 65.2 308.9 65.1 309.1C65 309.1 65 309.2 64.9 309.2L64.8 309.3C64.8 309.3 64.7 309.3 64.7 309.4C64.6 309.5 64.5 309.6 64.4 309.7C64.3 309.8 64.2 309.9 64 310C63.8 310.1 63.5 310.2 63.3 310.3C63.2 310.3 63.1 310.2 63 310.2C63.3 309.6 63.5 309.3 63.8 308.9Z" fill="white"/>
<path d="M77.3 303.6C77.4 303.7 77.5 303.8 77.6 304C77.7 304.1 77.7 304.2 77.8 304.3C77.9 304.4 78 304.6 78 304.8C78.1 304.9 78.1 305.1 78.1 305.3C78.1 305.4 78.1 305.5 78.1 305.6C78.1 305.7 78.1 305.8 78.1 305.9V306V306.1C78.1 306.3 78 306.4 77.9 306.6C77.8 306.7 77.7 306.9 77.6 307C77.5 307.1 77.3 307.2 77.2 307.3C77.2 307.2 77.2 307.2 77.2 307.1C77.3 306.7 77.3 306.3 77.2 306C77.2 305.8 77.1 305.5 77.1 305.3C77.1 305.1 77 305 77 304.8C77 304.7 77 304.6 77 304.4C77 304.3 77 304.3 77 304.2C77 304.1 77 304 77.1 304C77.1 303.9 77.2 303.8 77.3 303.6Z" fill="white"/>
<path d="M74.2 296.8C74.6 296.7 75.1 296.5 75.5 296.5C75.6 296.5 75.7 296.5 75.8 296.5C75.9 296.5 76 296.5 76.1 296.5C76.4 296.6 76.7 296.7 77 297C77.1 297.1 77.2 297.2 77.3 297.4C77.2 297.4 77.2 297.4 77.1 297.4C76.9 297.4 76.7 297.4 76.5 297.4C76.3 297.4 76.1 297.4 75.9 297.5C75.7 297.5 75.4 297.6 75.2 297.7C75 297.7 74.9 297.8 74.7 297.8C74.6 297.8 74.5 297.8 74.3 297.8C74.1 297.8 74 297.7 73.8 297.6C73.7 297.5 73.6 297.5 73.5 297.4C73.5 297.3 73.5 297.3 73.5 297.2C73.7 297 74 296.9 74.2 296.8Z" fill="white"/>
<path d="M61.7 313.1C61.8 313.2 61.8 313.3 61.9 313.5C61.9 313.6 62 313.7 62 313.9L61.9 313.8C61.7 313.7 61.5 313.6 61.3 313.5C61.1 313.4 60.9 313.3 60.7 313.2C60.6 313.1 60.4 313.1 60.3 313C60.2 312.9 60 312.8 59.9 312.7C59.8 312.6 59.7 312.5 59.6 312.3C59.6 312.2 59.5 312.1 59.5 312C59.5 311.9 59.5 311.8 59.5 311.6C59.5 311.5 59.5 311.4 59.5 311.2C59.5 311.1 59.6 311 59.6 310.9C59.7 311 59.8 311.1 59.8 311.2C59.8 311.3 59.9 311.3 60 311.4C60.1 311.5 60.2 311.6 60.3 311.7C60.4 311.8 60.5 311.9 60.6 311.9C60.7 312 60.8 312 60.9 312.1C60.9 312.1 60.9 312.1 61 312.2C61.2 312.4 61.5 312.6 61.7 312.8L61.8 312.9C61.6 313 61.6 313 61.7 313.1Z" fill="white"/>
<path d="M61.8 316.2C61.5 316.1 61.2 316.1 60.9 316C60.8 316 60.7 315.9 60.6 315.8C60.5 315.7 60.5 315.7 60.4 315.6C60.3 315.5 60.3 315.4 60.2 315.3C60.1 315.1 60.1 314.9 60 314.7C60.2 314.8 60.4 314.8 60.6 314.9C60.8 315 61.1 315 61.3 315.1C61.6 315.2 61.9 315.3 62.1 315.3C62.2 315.4 62.4 315.4 62.5 315.5C62.6 315.6 62.7 315.7 62.8 315.7L62 316.2C61.9 316.2 61.9 316.2 61.8 316.2Z" fill="white"/>
<path d="M66.2 281.6C66.2 281.7 66.2 281.8 66.2 282C66.2 282.3 66.2 282.6 66.2 282.8C66.2 283 66.2 283.1 66.2 283.3C66.1 283.6 66.1 283.8 65.9 284C65.8 284.1 65.8 284.2 65.7 284.3C65.7 284.2 65.7 284.2 65.7 284.2C65.6 283.8 65.4 283.4 65.3 282.9C65.2 282.6 65.2 282.3 65.2 281.9C65.2 281.8 65.2 281.6 65.3 281.5C65.4 281.3 65.5 281.1 65.7 281C65.8 280.9 65.9 280.9 66 280.8C66.1 280.7 66.2 280.7 66.3 280.6C66.3 280.8 66.2 281 66.2 281.2C66.2 281.4 66.2 281.5 66.2 281.6Z" fill="white"/>
<path d="M65.5 284C65.5 284.1 65.6 284.3 65.6 284.5C65.6 284.8 65.6 285 65.5 285.3C65.5 285.4 65.5 285.4 65.4 285.5C65.4 285.6 65.3 285.6 65.3 285.7C65.3 285.7 65.3 285.6 65.2 285.6C65.1 285.5 65 285.3 65 285.2C64.9 285 64.8 284.9 64.7 284.7C64.6 284.5 64.5 284.3 64.4 284C64.3 283.8 64.3 283.7 64.2 283.5C64.2 283.4 64.2 283.2 64.2 283.1C64.3 282.9 64.3 282.7 64.5 282.5C64.6 282.4 64.6 282.3 64.7 282.3C64.8 282.2 64.9 282.1 64.9 282.1C64.9 282.3 64.9 282.4 65 282.6C65 282.8 65.1 282.9 65.1 283C65.2 283.2 65.2 283.4 65.3 283.7C65.3 283.7 65.4 283.9 65.5 284Z" fill="white"/>
<path d="M74 295.1C74.1 295.2 74.2 295.3 74.4 295.4C74.3 295.4 74.3 295.4 74.2 295.4C74 295.4 73.7 295.5 73.5 295.6C73.5 295.4 73.5 295.1 73.5 294.9C73.7 294.9 73.9 295 74 295.1Z" fill="white"/>
<path d="M76 306.8C76 306.6 76 306.5 76 306.3C76 306.2 76 306.1 76 306.1C76 306 76 305.9 76 305.9C76 305.8 76 305.7 76.1 305.5C76.2 305.4 76.3 305.2 76.4 305.1C76.4 305 76.5 305 76.6 304.9L76.7 304.8L76.8 304.7C76.9 304.9 76.9 305.1 76.9 305.2C76.9 305.3 77 305.4 77 305.6C77 305.7 77 305.8 77.1 306C77.1 306.1 77.1 306.3 77.1 306.4C77.1 306.5 77.1 306.7 77.1 306.8C77.1 306.9 77.1 307 77 307.1C77 307.2 76.9 307.3 76.9 307.3C76.7 307.6 76.5 307.9 76.2 308C76.1 308.1 75.9 308.2 75.8 308.2C75.8 308.1 75.9 308.1 75.9 308C76 307.8 76 307.3 76 306.8Z" fill="white"/>
<path d="M70.2 279.9C70.3 279.8 70.5 279.8 70.6 279.8C70.8 279.8 71 279.8 71.3 279.9C71.5 280 71.7 280.1 71.9 280.2C71.6 280.3 71.3 280.4 71 280.6C70.6 280.8 70.2 281.1 69.9 281.3C69.8 281.4 69.6 281.5 69.5 281.5H69.4C69.4 281.4 69.4 281.2 69.4 281.1C69.4 280.8 69.5 280.5 69.6 280.2L69.7 280.1C69.9 280.1 70 280 70.2 279.9Z" fill="white"/>
<path d="M71 280.9C71.3 280.7 71.6 280.6 71.9 280.5C72 280.5 72.2 280.5 72.4 280.5C72.6 280.5 72.8 280.6 73 280.8C73.2 280.9 73.3 281.1 73.5 281.2C73.3 281.2 73.1 281.3 72.9 281.3C72.6 281.4 72.4 281.4 72.2 281.5C71.9 281.6 71.6 281.7 71.4 281.8C71.3 281.8 71.1 281.9 71 281.9C70.7 281.9 70.5 281.9 70.3 281.9C70.2 281.9 70.2 281.9 70.1 281.9C70 281.9 70 281.9 69.9 281.8L70 281.7C70.2 281.4 70.6 281.1 71 280.9Z" fill="white"/>
<path d="M74.1 295.6C74.3 295.6 74.4 295.6 74.6 295.6C74.9 295.6 75.2 295.8 75.5 295.9C75.6 296 75.7 296.1 75.8 296.2C75.7 296.2 75.7 296.2 75.6 296.2C75.1 296.2 74.7 296.4 74.2 296.5C73.9 296.6 73.7 296.7 73.4 296.8C73.4 296.4 73.4 296.1 73.4 295.8C73.7 295.7 73.9 295.7 74.1 295.6Z" fill="white"/>
<path d="M78.6 303.1L78.5 303L78.4 302.9C78.3 302.8 78.2 302.7 78.1 302.7C78 302.6 77.8 302.5 77.7 302.4C77.6 302.3 77.5 302.2 77.5 302.1C77.5 302 77.4 302 77.4 301.9V301.8V301.7C77.4 301.6 77.4 301.5 77.4 301.5C77.4 301.4 77.4 301.3 77.4 301.2C77.5 301.2 77.7 301.3 77.8 301.3C77.9 301.4 78.1 301.4 78.2 301.5C78.4 301.6 78.6 301.7 78.8 301.8C78.9 301.9 79 301.9 79.1 302C79.2 302.1 79.3 302.1 79.3 302.2C79.4 302.3 79.4 302.3 79.5 302.4C79.6 302.5 79.6 302.6 79.6 302.7C79.7 302.9 79.7 303 79.7 303.2C79.7 303.3 79.7 303.4 79.7 303.5V303.6V303.7C79.7 303.8 79.7 303.9 79.6 304C79.6 304.1 79.5 304.2 79.5 304.2C79.5 304.1 79.5 304.1 79.5 304C79.4 303.8 79.3 303.6 79.2 303.5C78.9 303.4 78.7 303.2 78.6 303.1Z" fill="white"/>
<path d="M79.1 301.9C79 301.8 78.9 301.8 78.8 301.7C78.7 301.6 78.6 301.6 78.5 301.5C78.4 301.4 78.3 301.4 78.2 301.3C77.9 301.2 77.6 301.1 77.3 301C77.2 301 77.1 300.9 77 300.8C76.9 300.7 76.8 300.6 76.7 300.4C76.6 300.3 76.6 300.1 76.5 299.9C76.7 299.9 76.9 299.9 77.1 300C77.2 300 77.3 300 77.5 300.1C77.6 300.1 77.7 300.2 77.9 300.2C78 300.2 78.2 300.3 78.3 300.3C78.4 300.4 78.6 300.4 78.7 300.5C78.8 300.6 79 300.7 79.1 300.9C79.2 301 79.3 301.2 79.4 301.3C79.5 301.5 79.5 301.6 79.6 301.8C79.6 302 79.6 302.1 79.6 302.3C79.6 302.2 79.5 302.2 79.5 302.2C79.3 302 79.2 301.9 79.1 301.9Z" fill="white"/>
<path d="M72.8 282.5C72.7 282.5 72.6 282.5 72.5 282.5C72.3 282.5 72.2 282.5 72 282.5C71.7 282.5 71.5 282.4 71.3 282.3C71.2 282.2 71.1 282.2 71 282.1C71.1 282.1 71.1 282.1 71.1 282.1C71.4 282 71.7 281.9 72.1 281.8C72.3 281.7 72.6 281.7 72.8 281.6C73 281.6 73.1 281.5 73.3 281.5C73.3 281.5 73.3 281.5 73.4 281.5C73.3 281.9 73.2 282.3 72.8 282.5C72.9 282.5 72.9 282.5 72.8 282.5Z" fill="white"/>
<path d="M76 299.3C75.9 299.2 75.8 299 75.7 298.9H75.8C76.1 298.9 76.3 298.8 76.6 298.8C76.8 298.8 76.9 298.8 77.1 298.8C77.3 298.8 77.4 298.8 77.6 298.8C77.7 298.8 77.8 298.8 77.9 298.9C78 298.9 78.1 299 78.1 299C78.2 299 78.3 299.1 78.3 299.1C78.4 299.2 78.4 299.2 78.5 299.3C78.6 299.4 78.6 299.4 78.7 299.5C78.8 299.6 78.9 299.8 79 299.9C79.1 300.1 79.1 300.2 79.1 300.4C79 300.4 79 300.3 79 300.3C78.7 300.1 78.3 300 77.9 299.9C77.7 299.8 77.4 299.8 77.2 299.8C77.1 299.8 77 299.8 77 299.8C76.9 299.8 76.8 299.8 76.8 299.8C76.7 299.8 76.6 299.7 76.5 299.7C76.4 299.7 76.4 299.6 76.3 299.6C76.1 299.4 76.1 299.3 76 299.3Z" fill="white"/>
<path d="M65.1 286.6C65.1 286.7 65.1 286.8 65 286.9L64.9 286.8C64.8 286.7 64.6 286.5 64.5 286.4C64.5 286.3 64.4 286.3 64.4 286.2C64.3 286.1 64.1 285.9 64 285.8C63.8 285.6 63.6 285.3 63.5 285C63.5 284.9 63.4 284.8 63.4 284.6C63.4 284.5 63.4 284.4 63.4 284.3C63.4 284.2 63.5 284.1 63.5 284C63.5 283.9 63.6 283.8 63.7 283.7C63.8 283.6 63.8 283.5 63.9 283.4C64 283.6 64 283.8 64.1 284C64.1 284.1 64.2 284.2 64.3 284.3C64.4 284.4 64.4 284.5 64.5 284.6C64.6 284.7 64.6 284.9 64.7 285C64.8 285.1 64.8 285.2 64.9 285.4C65 285.5 65 285.7 65.1 285.8C65.2 286 65.2 286.2 65.2 286.3C65.1 286.4 65.1 286.5 65.1 286.6Z" fill="white"/>
<path d="M60.9 316.7C60.8 316.5 60.7 316.3 60.7 316.1H60.8C61.1 316.2 61.4 316.2 61.6 316.3H61.7L60.9 316.7C60.9 316.7 61 316.8 60.9 316.7Z" fill="white"/>
<path d="M64.6 286.8C64.6 286.9 64.7 286.9 64.7 287C64.7 287.1 64.8 287.1 64.8 287.2C64.9 287.4 65 287.7 65.1 287.9C65.1 288 65.1 288.1 65.1 288.2L65 288.1C64.9 288 64.7 287.9 64.6 287.8C64.5 287.7 64.3 287.6 64.1 287.5C64 287.4 63.9 287.4 63.8 287.3C63.7 287.2 63.6 287.1 63.5 287.1C63.4 287 63.4 287 63.3 286.9C63.2 286.8 63.2 286.8 63.1 286.7C63 286.6 62.9 286.5 62.9 286.3C62.9 286.2 62.9 286.1 62.9 286C62.9 285.9 62.9 285.7 62.9 285.6C62.9 285.5 63 285.4 63 285.3C63 285.2 63 285.2 63.1 285.1C63.1 285 63.1 285 63.2 284.9V285C63.3 285.1 63.3 285.3 63.4 285.4C63.5 285.5 63.6 285.6 63.7 285.7C63.8 285.8 63.9 286 64 286.1C64.1 286.2 64.2 286.3 64.3 286.4C64.5 286.6 64.6 286.7 64.6 286.8Z" fill="white"/>
<path d="M64.3 289C64.1 288.9 64 288.9 63.9 288.8C63.8 288.7 63.6 288.6 63.5 288.6C63.4 288.5 63.3 288.4 63.2 288.2C63.1 288 63 287.8 63 287.5C63 287.4 63 287.3 63 287.2C63 287.1 63 287 63 286.9C63.1 287.1 63.3 287.2 63.4 287.3C63.6 287.5 63.8 287.6 64 287.7C64.2 287.9 64.5 288 64.7 288.1C64.8 288.2 65 288.3 65.1 288.4C65.3 288.6 65.5 288.8 65.6 289C65.6 289 65.6 289 65.6 289.1H64.7C64.6 289.1 64.4 289.1 64.3 289Z" fill="white"/>
<path d="M63.2 288.8C63.5 289 63.7 289.1 64 289.2H63.3C63.2 289 63.2 288.9 63.2 288.8Z" fill="white"/>
<path d="M76.7 298.6C76.5 298.6 76.4 298.6 76.2 298.6C76.1 298.6 76 298.6 76 298.6H75.8C75.7 298.6 75.6 298.6 75.5 298.5C75.3 298.4 75.2 298.4 75.1 298.2C75 298.1 74.8 298 74.7 297.8C74.9 297.8 75.1 297.7 75.3 297.7C75.5 297.6 75.8 297.6 76 297.5C76.1 297.5 76.3 297.5 76.4 297.4C76.5 297.4 76.7 297.4 76.8 297.4C76.9 297.4 77 297.4 77.1 297.4C77.2 297.4 77.3 297.5 77.4 297.5C77.5 297.5 77.6 297.6 77.7 297.7C77.8 297.8 77.9 297.8 78 297.9C78.1 298 78.1 298 78.2 298.1C78.3 298.2 78.4 298.4 78.4 298.5C78.3 298.5 78.3 298.4 78.2 298.4C78 298.3 77.8 298.3 77.6 298.3C77.5 298.3 77.5 298.3 77.4 298.3C77.1 298.6 76.9 298.6 76.7 298.6Z" fill="white"/>
<path d="M73.2 309.5C73.2 309.2 73.1 309 73.1 308.7C73.2 308.6 73.2 308.4 73.3 308.3C73.3 308.2 73.4 308 73.5 307.9C73.5 307.7 73.6 307.6 73.6 307.5C73.7 308.1 73.7 308.8 73.8 309.3C73.6 309.3 73.4 309.4 73.2 309.5Z" fill="white"/>
<path d="M68 282.1L67.9 282.2C67.8 282.3 67.7 282.3 67.6 282.3V282.2C67.6 282 67.7 281.9 67.7 281.7C67.7 281.6 67.7 281.6 67.7 281.5C67.7 281.3 67.8 281.1 67.8 280.9C67.8 280.8 67.9 280.7 67.9 280.7C67.9 280.9 67.9 281.1 67.9 281.2C67.9 281.5 67.9 281.8 68 282.1Z" fill="white"/>
<path d="M67.4 281.9C67.4 282 67.3 282.2 67.3 282.3C67.2 282.6 67.1 282.8 66.9 283C66.8 283.1 66.7 283.2 66.6 283.2C66.6 283.1 66.6 283.1 66.6 283.1C66.6 282.8 66.5 282.4 66.5 282C66.5 281.9 66.5 281.8 66.5 281.6C66.5 281.5 66.5 281.4 66.5 281.2C66.5 281 66.5 280.9 66.6 280.7C66.6 280.6 66.7 280.4 66.8 280.3C66.9 280.2 66.9 280.2 67 280.1C67.1 280 67.2 280 67.4 279.9C67.5 279.9 67.5 279.9 67.6 279.8C67.7 279.8 67.7 279.8 67.8 279.8C67.9 279.8 68 279.8 68.2 279.8C68 280.1 67.9 280.3 67.8 280.6C67.7 280.8 67.7 280.9 67.7 281.1C67.7 281.3 67.6 281.4 67.6 281.5C67.4 281.7 67.4 281.8 67.4 281.9Z" fill="white"/>
<path d="M66.3 290.2C66.4 290.3 66.4 290.4 66.5 290.5C66.4 290.5 66.4 290.5 66.4 290.5C66.2 290.5 66.1 290.5 65.9 290.5C65.7 290.5 65.5 290.5 65.4 290.5C65.2 290.5 64.9 290.5 64.7 290.4C64.5 290.4 64.4 290.3 64.2 290.3C64.1 290.3 63.9 290.2 63.8 290L63.7 289.9H66C66.1 290 66.2 290.1 66.3 290.2Z" fill="white"/>
<path d="M67.9 281.2C67.9 281 67.9 280.8 67.9 280.7C68 280.5 68.1 280.2 68.3 280C68.4 279.9 68.5 279.8 68.7 279.8C68.8 279.8 68.9 279.7 69 279.7C69.1 279.7 69.2 279.7 69.4 279.7C69.6 279.7 69.9 279.7 70.1 279.8C69.9 279.9 69.8 280.1 69.6 280.2C69.5 280.3 69.4 280.4 69.3 280.5C69.2 280.6 69.1 280.7 69.1 280.8C69 280.9 68.9 281 68.9 281.2C68.8 281.3 68.8 281.4 68.7 281.5C68.6 281.6 68.5 281.7 68.4 281.9C68.3 282 68.3 282 68.2 282.1C68.1 282.2 68.1 282.2 68 282.3C67.9 281.8 67.9 281.5 67.9 281.2Z" fill="white"/>
<path d="M64.4 289.3C64.5 289.3 64.6 289.4 64.7 289.4H64.8H63.3C63.3 289.3 63.2 289.2 63.2 289.1H63.9C64.2 289.2 64.3 289.2 64.4 289.3Z" fill="white"/>
<path d="M69.5 281.6C69.3 281.7 69.1 281.8 68.9 281.8C68.8 281.8 68.7 281.8 68.6 281.8L68.7 281.7C68.9 281.4 69 281.1 69.3 280.8C69.4 280.6 69.6 280.5 69.7 280.3C69.6 280.6 69.5 280.8 69.5 281.2C69.5 281.3 69.5 281.5 69.5 281.6Z" fill="white"/>
<path d="M73 307.3C73 307.6 73 307.9 73.1 308.2C73.1 308.3 73 308.4 73 308.5C72.9 308.6 72.9 308.8 72.8 308.9C72.7 309 72.7 309.1 72.6 309.2C72.5 309.3 72.4 309.5 72.2 309.6C72.1 309.7 71.9 309.8 71.8 309.9C71.7 310 71.5 310 71.3 310.1C71.2 310.1 71 310.1 70.9 310.1L71 310C71.1 309.9 71.2 309.7 71.3 309.6C71.4 309.4 71.5 309.3 71.6 309.1C71.7 308.9 71.8 308.7 71.9 308.4C72 308.2 72 308.1 72.1 308C72.2 307.9 72.2 307.8 72.4 307.7C72.5 307.7 72.5 307.6 72.6 307.6C72.7 307.6 72.8 307.5 72.9 307.5C72.9 307.3 72.9 307.3 73 307.3Z" fill="white"/>
<path d="M73.2 309.5C73.1 309.5 73.1 309.5 73 309.6C72.9 309.6 72.7 309.7 72.6 309.7L72.7 309.6C72.8 309.4 72.9 309.3 73 309.1C73 309 73.1 309 73.1 308.9V308.8C73.1 309 73.1 309.3 73.2 309.5Z" fill="white"/>
<path d="M65.7 289.4C65.6 289.4 65.6 289.4 65.7 289.4C65.4 289.3 65.2 289.3 65 289.2C64.9 289.2 64.9 289.2 64.8 289.1H65.7C65.6 289.2 65.7 289.3 65.7 289.4Z" fill="white"/>
<path d="M67.5 291.5H64.6C64.5 291.4 64.3 291.3 64.2 291.1C64.1 291 64.1 290.9 64 290.8C64 290.7 63.9 290.6 63.9 290.5C64.1 290.6 64.3 290.6 64.5 290.6C64.7 290.6 65 290.7 65.3 290.7C65.6 290.7 65.9 290.7 66.1 290.8C66.2 290.8 66.2 290.8 66.3 290.8C66.4 290.8 66.5 290.8 66.5 290.9C66.6 290.9 66.7 291 66.8 291C66.9 291 67 291.1 67.1 291.1C67.2 291.1 67.2 291.2 67.3 291.2C67.4 291.3 67.5 291.4 67.5 291.5Z" fill="white"/>
<path d="M59.5 310.9C59.6 311 59.6 311.1 59.7 311.3C59.6 311.2 59.5 311.1 59.5 310.9C59.5 310.9 59.5 311 59.5 310.9Z" fill="white"/>
<path d="M69 308.2C68.9 308.3 68.9 308.3 68.8 308.4C68.8 308.3 68.8 308.2 68.8 308.2C68.9 308.2 69 308.2 69 308.2Z" fill="white"/>
<path d="M60.7 312.2C60.9 312.3 61 312.4 61.1 312.5C61.2 312.6 61.3 312.7 61.4 312.8C61.2 312.6 61 312.4 60.7 312.2Z" fill="white"/>
<path d="M68.8 308.8C68.9 308.7 69 308.5 69.1 308.4C69.2 308.3 69.3 308.2 69.4 308.2C69.5 308.1 69.7 308.1 69.9 308C70.1 308 70.2 308 70.4 308C70.2 308.3 70.1 308.5 70 308.8C69.9 309 69.8 309.2 69.6 309.4C69.5 309.6 69.3 309.7 69.2 309.9C69.1 310 68.9 310.1 68.8 310.2C68.7 310.2 68.6 310.3 68.6 310.3C68.7 309.8 68.7 309.4 68.8 308.8C68.8 308.8 68.8 308.9 68.8 308.8Z" fill="white"/>
<path d="M70.9 308C71 307.9 71.2 307.8 71.4 307.8C71.6 307.8 71.7 307.7 71.9 307.7C71.8 307.9 71.7 308 71.7 308.2C71.6 308.4 71.5 308.6 71.4 308.9C71.3 309.2 71.1 309.4 70.9 309.6C70.8 309.7 70.7 309.8 70.5 309.9C70.4 310 70.2 310.1 70.1 310.1C69.9 310.2 69.8 310.2 69.6 310.2C69.5 310.2 69.4 310.2 69.4 310.2C69.3 310.2 69.3 310.2 69.2 310.2L69.3 310.1C69.5 309.9 69.6 309.8 69.7 309.6C69.8 309.4 70 309.2 70.1 309C70.3 308.7 70.4 308.5 70.6 308.2C70.7 308.1 70.8 308 70.9 308Z" fill="white"/>
<path d="M73.7 307.1C73.8 307 73.8 307 73.9 306.9C74 307.5 74 308.1 74.1 308.7C74 308.8 73.9 309 73.8 309.1C73.8 309.1 73.8 309.1 73.7 309.2C73.6 308.6 73.6 308 73.5 307.4C73.6 307.2 73.7 307.2 73.7 307.1Z" fill="white"/>
<path d="M67.8 280.9C67.7 281.1 67.7 281.3 67.7 281.5L67.5 281.2C67.5 281 67.6 280.9 67.6 280.7C67.7 280.4 67.8 280.2 68 279.9C67.9 279.9 67.8 279.9 67.6 279.9C67.5 279.9 67.5 279.9 67.4 279.9C67.3 279.9 67.3 279.9 67.2 280C67.1 280.1 66.9 280.1 66.8 280.2L66.7 280C66.8 279.9 66.9 279.9 67.1 279.8C67.2 279.8 67.3 279.7 67.4 279.7C67.5 279.7 67.6 279.7 67.7 279.6C67.8 279.6 67.9 279.6 68 279.6H68.1C67.9 279.9 67.8 280.3 67.7 280.7C67.9 280.7 67.9 280.8 67.8 280.9Z" fill="black"/>
<path d="M69.5 281.6C69.5 281.7 69.5 281.8 69.6 281.8C69.8 281.9 69.9 281.9 70.1 282C70.3 282 70.5 282.1 70.7 282C70.8 282.1 71 282.2 71.1 282.3C71.3 282.4 71.5 282.5 71.7 282.5V282.6C71.8 282.7 71.9 282.7 72.1 282.8C72.1 282.8 72.1 282.8 72.2 282.8C72.1 282.7 72.1 282.7 72 282.6C72.1 282.6 72.1 282.6 72.1 282.6C72.2 282.6 72.4 282.6 72.5 282.6C72.6 282.5 72.7 282.4 72.8 282.4H72.7C72.6 282.4 72.5 282.4 72.4 282.4C72.2 282.4 72.1 282.4 71.9 282.4C71.6 282.4 71.4 282.3 71.2 282.2C71.1 282.1 71 282.1 70.9 282C71 282 71 282 71 282C71.3 281.9 71.6 281.8 72 281.7C72.2 281.6 72.5 281.6 72.7 281.5C72.9 281.5 73 281.4 73.2 281.4C73.2 281.4 73.2 281.4 73.3 281.4C73.3 281.3 73.3 281.2 73.3 281.1C73.3 281 73.3 280.9 73.3 280.8C73.2 280.7 73.1 280.6 72.9 280.5C72.6 280.3 72.3 280.2 72.1 280.2C71.8 279.9 71.5 279.8 71.2 279.7C70.9 279.6 70.5 279.6 70.3 279.6H70.2C69.9 279.8 69.7 280.1 69.5 280.4L69.6 280.3C69.7 280.2 69.9 280.1 70 280C70.1 279.9 70.3 279.9 70.4 279.9C70.6 279.9 70.8 279.9 71.1 280C71.3 280.1 71.5 280.2 71.7 280.3C71.4 280.4 71.1 280.5 70.8 280.7C70.4 280.9 70 281.2 69.7 281.4C69.9 281.4 69.7 281.5 69.5 281.6C69.5 281.6 69.6 281.6 69.5 281.6ZM69.8 281.7L69.9 281.6C70.2 281.4 70.6 281.1 71 280.8C71.3 280.6 71.6 280.5 71.9 280.4C72 280.4 72.2 280.4 72.4 280.4C72.6 280.4 72.8 280.5 73 280.7C73.2 280.8 73.3 281 73.5 281.1C73.3 281.1 73.1 281.2 72.9 281.2C72.6 281.3 72.4 281.3 72.2 281.4C71.9 281.5 71.6 281.6 71.4 281.7C71.3 281.7 71.1 281.8 71 281.8C70.7 281.8 70.5 281.8 70.3 281.8C70.2 281.8 70.2 281.8 70.1 281.8C69.9 281.8 69.9 281.7 69.8 281.7Z" fill="black"/>
<path d="M69.4 279.3C69.7 279.3 70.1 279.4 70.4 279.5C70.1 279.7 69.9 280 69.7 280.3C69.6 280.4 69.4 280.6 69.3 280.8C69.1 281.1 68.9 281.4 68.7 281.7C68.7 281.7 68.7 281.8 68.6 281.8C68.7 281.8 68.8 281.8 68.9 281.8C69.1 281.8 69.3 281.7 69.5 281.6C69.5 281.7 69.5 281.8 69.6 281.8C69.4 281.9 69.2 282 69 282C68.9 282 68.7 282 68.5 282H68.4C68.3 282 68.3 282.1 68.3 282.1L68.2 282.2L68.1 282C68.2 282 68.2 281.9 68.3 281.8C68.4 281.7 68.4 281.7 68.5 281.6C68.6 281.5 68.7 281.4 68.8 281.2C68.9 281.1 68.9 281 69 280.9C69.1 280.8 69.2 280.7 69.2 280.5C69.3 280.4 69.3 280.3 69.4 280.2C69.5 280.1 69.6 280 69.7 279.9C69.8 279.8 70 279.6 70.2 279.5C70 279.4 69.7 279.4 69.5 279.4C69.4 279.4 69.2 279.4 69.1 279.4C69 279.4 68.9 279.5 68.8 279.5C68.6 279.6 68.5 279.7 68.4 279.7C68.2 279.9 68.1 280.1 68 280.4C68.1 280 68.2 279.6 68.4 279.3H68.5C68.7 279.4 69 279.3 69.4 279.3Z" fill="black"/>
<path d="M67 280.1L66.9 279.9C66.7 280 66.6 280.1 66.5 280.3C66.3 280.4 66.1 280.4 66 280.5C65.9 280.6 65.7 280.7 65.6 280.8C65.5 280.9 65.5 280.9 65.4 281C65.3 281.1 65.3 281.1 65.3 281.2C65.2 281.3 65.1 281.4 65.1 281.6C64.9 281.7 64.8 281.8 64.7 281.9C64.6 282 64.5 282.1 64.4 282.3C64.3 282.4 64.2 282.6 64.2 282.7C64.1 282.8 64.1 283 64.1 283.1C63.8 283.3 63.6 283.6 63.5 283.9C63.4 284.1 63.4 284.2 63.4 284.4C63.4 284.5 63.4 284.7 63.4 284.8C63.3 285 63.2 285.1 63.2 285.3C63.1 285.5 63.1 285.6 63.1 285.8C63.1 285.9 63.1 286.1 63.1 286.2H63.3C63.3 286.1 63.3 285.9 63.3 285.8C63.3 285.7 63.4 285.6 63.4 285.5C63.4 285.4 63.4 285.4 63.5 285.3C63.5 285.2 63.5 285.2 63.6 285.1V285.2C63.7 285.3 63.7 285.5 63.8 285.6C63.9 285.7 64 285.8 64.1 285.9C64.2 286 64.3 286.2 64.4 286.3H64.7C64.6 286.2 64.4 286 64.3 285.9C64.1 285.7 63.9 285.4 63.8 285.1C63.8 285 63.7 284.9 63.7 284.7C63.7 284.6 63.7 284.5 63.7 284.4C63.7 284.3 63.8 284.2 63.8 284.1C63.8 284 63.9 283.9 64 283.8C64.1 283.7 64.1 283.6 64.2 283.5C64.3 283.7 64.3 283.9 64.4 284.1C64.4 284.2 64.5 284.3 64.6 284.4C64.7 284.5 64.7 284.6 64.8 284.7C64.9 284.8 64.9 285 65 285.1C65.1 285.2 65.1 285.3 65.2 285.5C65.3 285.6 65.3 285.8 65.4 285.9C65.5 286.1 65.5 286.3 65.5 286.4H65.7C65.7 286.2 65.7 286.1 65.6 285.9V285.8C65.7 285.6 65.8 285.5 65.9 285.3C66 285.1 66 284.8 66 284.6H66.1C66.3 284.5 66.4 284.3 66.5 284.2C66.6 284 66.7 283.8 66.8 283.5H66.9C67.1 283.4 67.2 283.3 67.3 283.2C67.5 283 67.6 282.8 67.7 282.6H67.8C67.9 282.6 68 282.6 68.1 282.5C68.2 282.5 68.3 282.4 68.3 282.4C68.3 282.4 68.4 282.4 68.4 282.3C68.4 282.2 68.4 282.1 68.3 282.1L68.2 282.2C68.1 282.3 68 282.3 67.9 282.3V282.2C67.9 282 68 281.9 68 281.7C68 281.6 68 281.6 68 281.5L67.8 281.2C67.8 281.4 67.7 281.5 67.7 281.6C67.7 281.7 67.7 281.8 67.6 281.9C67.6 282 67.5 282.2 67.5 282.3C67.4 282.6 67.3 282.8 67.1 283C67 283.1 66.9 283.2 66.8 283.2C66.8 283.1 66.8 283.1 66.8 283.1C66.8 282.8 66.7 282.4 66.7 282C66.7 281.9 66.7 281.8 66.7 281.6C66.7 281.5 66.7 281.4 66.7 281.2C66.7 281 66.7 280.9 66.8 280.7C66.8 280.6 66.9 280.4 67 280.3C66.9 280.3 66.9 280.2 67 280.1ZM65.1 282.8C65.2 283 65.2 283.2 65.3 283.5C65.4 283.7 65.4 283.9 65.5 284.1C65.5 284.2 65.6 284.4 65.6 284.6C65.6 284.9 65.6 285.1 65.5 285.4C65.5 285.5 65.5 285.5 65.4 285.6C65.4 285.7 65.3 285.7 65.3 285.8C65.3 285.8 65.3 285.7 65.2 285.7C65.1 285.6 65 285.4 65 285.3C64.9 285.1 64.8 285 64.7 284.8C64.6 284.6 64.5 284.4 64.4 284.1C64.3 283.9 64.3 283.8 64.2 283.6C64.2 283.5 64.2 283.3 64.2 283.2C64.3 283 64.3 282.8 64.5 282.6C64.6 282.5 64.6 282.4 64.7 282.4C64.8 282.3 64.9 282.2 64.9 282.2C64.9 282.4 64.9 282.5 65 282.7C65 282.5 65.1 282.7 65.1 282.8ZM66.3 280.6C66.3 280.8 66.2 281 66.2 281.2C66.2 281.3 66.2 281.5 66.2 281.6C66.2 281.7 66.2 281.8 66.2 282C66.2 282.3 66.2 282.6 66.2 282.8C66.2 283 66.2 283.1 66.2 283.3C66.1 283.6 66.1 283.8 65.9 284C65.8 284.1 65.8 284.2 65.7 284.3C65.7 284.2 65.7 284.2 65.7 284.2C65.6 283.8 65.4 283.4 65.3 282.9C65.2 282.6 65.2 282.3 65.2 281.9C65.2 281.8 65.2 281.6 65.3 281.5C65.4 281.3 65.5 281.1 65.7 281C65.8 280.9 65.9 280.9 66 280.8C66.1 280.7 66.2 280.7 66.3 280.6Z" fill="black"/>
<path d="M68 282L68.1 282.2C68.1 282.2 68.1 282.2 68 282.2C68 282.2 68 282.1 68 282C68 282 68 282.1 68 282Z" fill="black"/>
<path d="M63 286.3C63 286.5 63.1 286.6 63.2 286.7C63.3 286.8 63.3 286.8 63.4 286.9C63.5 287 63.5 287 63.6 287.1C63.7 287.2 63.8 287.3 63.9 287.3C64 287.4 64.1 287.4 64.2 287.5C64.4 287.6 64.5 287.7 64.7 287.8C64.8 287.9 65 288 65.1 288.1C65.1 288.1 65.2 288.1 65.2 288.2C65.2 288.1 65.2 288 65.2 287.9C65.2 287.7 65.1 287.4 64.9 287.2C64.9 287.1 64.8 287.1 64.8 287C64.8 286.9 64.7 286.9 64.7 286.8C64.6 286.7 64.6 286.6 64.5 286.6C64.4 286.5 64.3 286.4 64.2 286.3H64.5C64.5 286.4 64.6 286.4 64.6 286.5C64.7 286.6 64.8 286.8 65 286.9L65.1 287C65.1 286.9 65.2 286.8 65.2 286.7C65.2 286.6 65.2 286.6 65.2 286.5H65.4C65.4 286.6 65.4 286.6 65.4 286.7C65.4 286.8 65.4 286.9 65.4 287C65.4 287.1 65.3 287.2 65.3 287.3V287.4C65.4 287.6 65.5 287.8 65.5 288C65.5 288.2 65.5 288.3 65.5 288.5V288.6C65.7 288.8 65.8 288.9 65.9 289.1C65.9 289.1 65.9 289.2 66 289.3H65.8C65.8 289.3 65.8 289.3 65.8 289.2C65.7 289 65.5 288.8 65.3 288.6C65.2 288.5 65.1 288.4 64.9 288.3C64.7 288.2 64.4 288 64.2 287.9C64 287.8 63.8 287.6 63.6 287.5C63.4 287.4 63.3 287.2 63.2 287.1C63.2 287.2 63.2 287.3 63.2 287.4C63.2 287.5 63.2 287.6 63.2 287.7C63.2 287.9 63.3 288.2 63.4 288.4C63.5 288.6 63.6 288.7 63.7 288.8C63.8 288.9 64 289 64.1 289C64.2 289.1 64.4 289.1 64.5 289.2C64.7 289.3 64.8 289.3 65 289.3H64.3C64 289.2 63.8 289.1 63.5 288.9C63.5 289 63.5 289.2 63.6 289.3H63.4V289.2C63.4 289 63.4 288.8 63.4 288.7C63.3 288.6 63.3 288.5 63.2 288.3C63.2 288.2 63.2 288.1 63.1 288.1C63.1 288 63.1 287.9 63.1 287.8C63.1 287.5 63.1 287.1 63.2 286.8C63.2 286.7 63.1 286.5 63.1 286.3H63.3C63 286.2 63 286.3 63 286.3Z" fill="black"/>
<path d="M65.7 289.7C65.6 289.6 65.4 289.6 65.3 289.5C65.2 289.5 65.1 289.4 65 289.4C64.9 289.4 64.9 289.4 64.8 289.3H65.6H65.8V289.4V289.5L65.9 289.6L66 289.7C66 289.7 66 289.7 66.1 289.8H65.7C65.9 289.8 65.8 289.8 65.7 289.7Z" fill="black"/>
<path d="M63.5 289.7C63.5 289.8 63.6 289.8 63.6 289.9H63.3C63.2 289.8 63.2 289.6 63.1 289.5V289.4H63.3C63.4 289.5 63.4 289.6 63.5 289.7Z" fill="black"/>
<path d="M64.7 291.5C64.8 291.6 65 291.6 65.1 291.7C65.3 291.7 65.4 291.7 65.6 291.7C65.8 291.7 65.9 291.7 66.1 291.7C66.3 291.7 66.5 291.6 66.7 291.6L66.5 291.9C66.3 291.9 66.2 291.9 66 292C65.7 292 65.4 292 65.1 292C65.1 292 65.1 292 65 292C65.1 292.2 65.2 292.4 65.4 292.5C65.5 292.6 65.6 292.7 65.7 292.7L65.5 292.9C65.4 292.8 65.3 292.8 65.2 292.7C65 292.5 64.8 292.2 64.6 291.9C64.5 291.8 64.3 291.7 64.2 291.6L64.7 291.5C64.6 291.5 64.6 291.5 64.7 291.5Z" fill="black"/>
<path d="M65.6 289.1H65.8V289.2C65.8 289.3 65.8 289.3 65.8 289.4H65.6C65.7 289.3 65.6 289.2 65.6 289.1Z" fill="black"/>
<path d="M64 291.2C63.9 291.1 63.8 290.9 63.8 290.8C63.7 290.6 63.7 290.5 63.6 290.3C63.5 290.2 63.4 290.1 63.3 290H63.6L63.7 290.1C63.8 290.2 64 290.3 64.1 290.4C64.3 290.5 64.4 290.5 64.6 290.5C64.9 290.5 65.1 290.6 65.3 290.6C65.5 290.6 65.7 290.6 65.8 290.6C66 290.6 66.2 290.6 66.3 290.6H66.4C66.3 290.5 66.3 290.4 66.2 290.3C66.1 290.2 66 290.1 65.8 290H66.2C66.3 290.1 66.3 290.1 66.4 290.2C66.5 290.3 66.6 290.5 66.7 290.7V290.8C66.8 290.8 66.8 290.9 66.9 290.9C67 290.9 67 291 67.1 291L66.9 291.2C66.8 291.1 66.7 291.1 66.6 291.1C66.5 291.1 66.4 291 66.3 291C66.2 291 66.1 291 66.1 290.9C66 290.9 65.9 290.9 65.9 290.9C65.6 290.9 65.4 290.9 65.1 290.8C64.9 290.8 64.6 290.8 64.3 290.7C64.1 290.7 63.9 290.6 63.7 290.6C63.7 290.7 63.8 290.8 63.8 290.9C63.8 291 63.9 291.1 64 291.2C64.1 291.4 64.2 291.5 64.4 291.6H64.1C64.2 291.4 64.1 291.3 64 291.2Z" fill="black"/>
<path d="M63.4 289.4H63.2C63.2 289.4 63.2 289.3 63.2 289.2V289.1H63.4C63.3 289.2 63.3 289.3 63.4 289.4Z" fill="black"/>
<path d="M65.6 289.4H64.9H64.8C64.7 289.4 64.6 289.3 64.5 289.3C64.4 289.3 64.3 289.2 64.2 289.2H64.9C65 289.2 65 289.2 65.1 289.3C65.2 289.3 65.4 289.3 65.6 289.4Z" fill="black"/>
<path d="M65.9 292.8C66.1 292.9 66.2 292.9 66.3 292.9C66.5 292.9 66.6 292.9 66.8 292.8C67 292.7 67.3 292.7 67.5 292.6C67.9 292.5 68.2 292.4 68.6 292.3C68.6 292.3 68.7 292.3 68.8 292.3C68.7 292.2 68.6 292.1 68.5 292C68.3 291.8 68 291.8 67.7 291.7C67.6 291.7 67.5 291.7 67.5 291.7C67.4 291.7 67.3 291.7 67.3 291.7C67.2 291.7 67.1 291.7 67 291.7C66.8 291.7 66.7 291.7 66.5 291.8L66.7 291.5C66.8 291.5 66.8 291.5 66.9 291.5C67.1 291.5 67.3 291.4 67.5 291.4H67.6H67.9V291.5C68.1 291.6 68.4 291.6 68.6 291.8C68.8 291.9 68.9 292 69.1 292.2V292.3C69.2 292.3 69.4 292.3 69.5 292.4C69.5 292.5 69.5 292.6 69.5 292.6H69.4C69.3 292.6 69.1 292.5 69 292.5C68.8 292.5 68.7 292.5 68.5 292.5C68.4 292.5 68.2 292.6 68.1 292.6C68 292.6 67.8 292.7 67.7 292.7C67.5 292.8 67.2 292.8 67 292.9C66.8 292.9 66.6 293 66.4 293C66.5 293.2 66.7 293.3 66.9 293.4C67.1 293.5 67.3 293.6 67.5 293.7C67.7 293.7 67.8 293.7 67.9 293.7C68.2 293.6 68.5 293.5 68.8 293.4C69 293.3 69.2 293.2 69.5 293.2C69.6 293.2 69.6 293.2 69.7 293.1C69.7 293.2 69.7 293.3 69.7 293.4C69.4 293.5 69.1 293.6 68.8 293.7C68.5 293.8 68.2 293.9 67.9 294C68 294.1 68.2 294.3 68.4 294.4C68.6 294.5 68.8 294.6 69 294.6C69.2 294.6 69.3 294.6 69.4 294.6C69.5 294.6 69.6 294.5 69.7 294.5C69.7 294.6 69.7 294.7 69.7 294.8C69.6 294.8 69.5 294.9 69.4 294.9C69.5 295 69.6 295.1 69.7 295.1C69.7 295.2 69.7 295.3 69.7 295.4C69.5 295.3 69.3 295.1 69.1 294.9C68.9 294.9 68.6 294.8 68.3 294.6C68.2 294.5 68.1 294.4 67.9 294.3C67.8 294.2 67.7 294.1 67.6 294C67.4 294 67.1 293.8 66.8 293.7C66.6 293.5 66.3 293.3 66.1 293C66 293 66 292.9 65.9 292.9C65.8 292.9 65.8 292.8 65.7 292.8L65.9 292.6C65.8 292.7 65.8 292.8 65.9 292.8Z" fill="black"/>
<path d="M67.3 291.2C67.2 291.2 67.2 291.1 67.1 291.1L67.3 290.9C67.4 290.9 67.4 291 67.5 291C67.6 291.1 67.8 291.3 67.9 291.4H67.6C67.5 291.4 67.4 291.3 67.3 291.2Z" fill="black"/>
<path d="M77.6 297.9C77.5 297.8 77.4 297.8 77.3 297.7C77.2 297.7 77.1 297.6 77 297.6C76.9 297.6 76.8 297.6 76.7 297.6C76.6 297.6 76.4 297.6 76.3 297.6C76.2 297.6 76 297.6 75.9 297.7C75.7 297.7 75.4 297.8 75.2 297.9C75 297.9 74.8 298 74.6 298C74.7 298.1 74.8 298.3 75 298.4C75.1 298.5 75.3 298.6 75.4 298.7C75.5 298.7 75.6 298.8 75.7 298.8H75.9C76 298.8 76.1 298.8 76.1 298.8C76.3 298.8 76.4 298.8 76.6 298.8C76.8 298.8 77 298.8 77.2 298.8L76.9 299C76.7 299 76.6 299 76.4 299C76.1 299 75.9 299 75.6 299.1H75.5C75.6 299.3 75.7 299.4 75.8 299.5C75.9 299.6 75.9 299.6 76 299.7L75.8 299.8C75.7 299.7 75.7 299.7 75.6 299.6C75.5 299.5 75.5 299.4 75.4 299.3C75.3 299.2 75.3 299.1 75.2 299C75 298.9 74.8 298.8 74.6 298.7C74.4 298.6 74.2 298.4 74.1 298.1C73.9 298.1 73.7 298 73.5 297.8C73.4 297.8 73.4 297.7 73.3 297.7C73.3 297.6 73.3 297.5 73.3 297.4C73.4 297.5 73.5 297.5 73.6 297.6C73.8 297.7 73.9 297.8 74.1 297.8C74.2 297.8 74.4 297.8 74.5 297.8C74.7 297.8 74.8 297.7 75 297.7C75.2 297.6 75.5 297.6 75.7 297.5C75.9 297.5 76.1 297.4 76.3 297.4C76.5 297.4 76.7 297.4 76.9 297.4C76.9 297.4 77 297.4 77.1 297.4C77 297.3 76.9 297.2 76.8 297C76.6 296.8 76.3 296.6 75.9 296.5C75.8 296.5 75.7 296.5 75.6 296.5C75.5 296.5 75.4 296.5 75.3 296.5C74.9 296.5 74.5 296.7 74 296.8C73.8 296.9 73.5 297 73.3 297C73.3 296.9 73.3 296.8 73.3 296.8C73.6 296.7 73.8 296.6 74.1 296.5C74.6 296.3 75 296.2 75.5 296.2C75.5 296.2 75.6 296.2 75.7 296.2C75.6 296.1 75.5 296 75.4 295.9C75.1 295.7 74.8 295.6 74.5 295.6C74.3 295.6 74.1 295.6 74 295.6C73.8 295.6 73.6 295.7 73.4 295.8C73.4 295.7 73.4 295.6 73.4 295.6C73.6 295.5 73.9 295.4 74.1 295.4C74.1 295.4 74.2 295.4 74.3 295.4C74.2 295.3 74.1 295.2 73.9 295.1C73.7 295 73.5 294.9 73.4 294.9C73.4 294.8 73.4 294.7 73.4 294.7C73.6 294.7 73.8 294.8 74.1 294.9C74.3 295 74.5 295.2 74.7 295.4V295.5C75 295.5 75.3 295.7 75.5 295.8C75.7 295.9 75.9 296.1 76 296.3V296.4C76.3 296.5 76.6 296.6 76.8 296.9C76.9 297 77 297.1 77.1 297.2C77.1 297.3 77.2 297.3 77.2 297.4C77.2 297.5 77.3 297.5 77.3 297.6V297.7C77.4 297.8 77.5 297.8 77.6 297.9C77.7 298 77.8 298 77.9 298.1L77.7 298.2C77.8 298.1 77.7 298 77.6 297.9Z" fill="black"/>
<path d="M78.9 305.3L79.1 305.4C79.2 305.3 79.2 305.2 79.2 305.1C79.2 305 79.2 304.9 79.3 304.8L79.4 304.7C79.5 304.6 79.6 304.5 79.6 304.3C79.7 304.2 79.7 304 79.7 303.9V303.8V303.7C79.7 303.6 79.7 303.5 79.7 303.4C79.7 303.2 79.7 303.1 79.6 302.9V302.8V302.7C79.6 302.6 79.7 302.4 79.7 302.3C79.7 302.2 79.7 302 79.7 301.9C79.7 301.7 79.6 301.5 79.6 301.4C79.5 301.2 79.4 301.1 79.4 301V300.9V300.8C79.4 300.7 79.4 300.5 79.4 300.4C79.4 300.3 79.3 300.1 79.3 300C79.2 299.7 79 299.4 78.7 299.2V299.1V299C78.7 298.9 78.7 298.9 78.6 298.8C78.6 298.7 78.5 298.7 78.5 298.6C78.4 298.5 78.4 298.4 78.3 298.3C78.2 298.2 78.2 298.1 78.1 298.1L77.9 298.2C78 298.3 78 298.3 78.1 298.4C78.2 298.5 78.3 298.7 78.3 298.8C78.2 298.8 78.2 298.7 78.1 298.7C77.9 298.6 77.7 298.6 77.5 298.6C77.4 298.6 77.4 298.6 77.3 298.6L77 298.8C77.2 298.8 77.3 298.8 77.5 298.8C77.6 298.8 77.7 298.8 77.8 298.9C77.9 298.9 78 299 78 299C78.1 299 78.2 299.1 78.2 299.1C78.3 299.2 78.3 299.2 78.4 299.3C78.5 299.4 78.5 299.4 78.6 299.5C78.7 299.6 78.8 299.8 78.9 299.9C79 300.1 79 300.2 79 300.4C78.9 300.4 78.9 300.3 78.9 300.3C78.6 300.1 78.2 300 77.8 299.9C77.6 299.8 77.3 299.8 77.1 299.8C77 299.8 76.9 299.8 76.9 299.8C76.8 299.8 76.7 299.8 76.7 299.8C76.6 299.8 76.5 299.7 76.4 299.7C76.3 299.7 76.3 299.6 76.2 299.6L76 299.7C76 299.7 76.1 299.8 76.2 299.8L76.3 299.9C76.3 300 76.3 300 76.4 300.1C76.4 300.2 76.4 300.2 76.5 300.3C76.5 300.4 76.6 300.5 76.6 300.6C76.7 300.7 76.7 300.8 76.8 300.9L76.9 301L77 301.1C77 301.2 77 301.4 77 301.5C77 301.6 77 301.7 77.1 301.8C77.1 301.9 77.2 302 77.2 302.1C77.2 302.2 77.3 302.3 77.3 302.3C77.3 302.4 77.2 302.5 77.2 302.6C77.2 302.7 77.2 302.8 77.2 302.9C77.2 303 77.2 303.1 77.2 303.2C77.2 303.3 77.2 303.4 77.2 303.5L77.1 303.6L77 303.7C77 303.7 77 303.8 76.9 303.8C76.9 303.8 76.9 303.9 76.8 303.9V304C76.8 304 76.8 304 76.8 304.1C76.8 304.1 76.8 304.1 76.8 304.2L77 304.3C77 304.2 77 304.1 77.1 304.1C77.2 304 77.2 303.8 77.3 303.7C77.4 303.8 77.5 303.9 77.5 304C77.6 304.1 77.6 304.2 77.7 304.3C77.8 304.4 77.9 304.6 77.9 304.8L78.2 305C78.1 304.8 78 304.6 78 304.5C78 304.4 77.9 304.4 77.9 304.3C77.9 304.2 77.8 304.2 77.8 304.1C77.7 304 77.6 303.8 77.6 303.7C77.5 303.6 77.5 303.5 77.5 303.4V303.3V303.2C77.5 303.1 77.5 303.1 77.5 303C77.5 302.9 77.5 302.9 77.5 302.8C77.5 302.7 77.5 302.7 77.6 302.6L77.7 302.7L77.8 302.8C77.9 302.9 77.9 302.9 78 303C78.2 303.1 78.4 303.3 78.5 303.5C78.6 303.6 78.6 303.6 78.6 303.7C78.6 303.8 78.7 303.8 78.7 303.9C78.8 304 78.8 304.2 78.9 304.3C79 304.5 79 304.6 79 304.8C79 304.9 79 305.1 78.9 305.3C78.9 305.2 79 305 78.9 305.3ZM79.5 302.3C79.5 302.2 79.4 302.2 79.4 302.2C79.3 302.1 79.2 302 79.1 301.9C79 301.8 78.9 301.8 78.8 301.7C78.7 301.6 78.6 301.6 78.5 301.5C78.4 301.4 78.3 301.4 78.2 301.3C77.9 301.2 77.6 301.1 77.3 301C77.2 301 77.1 300.9 77 300.8C76.9 300.7 76.8 300.6 76.7 300.4C76.6 300.3 76.6 300.1 76.5 299.9C76.7 299.9 76.9 299.9 77.1 300C77.2 300 77.3 300 77.5 300.1C77.6 300.1 77.7 300.2 77.9 300.2C78 300.2 78.2 300.3 78.3 300.3C78.4 300.4 78.6 300.4 78.7 300.5C78.8 300.6 79 300.7 79.1 300.9C79.2 301 79.3 301.2 79.4 301.3C79.5 301.5 79.5 301.6 79.6 301.8C79.5 301.9 79.5 302.1 79.5 302.3ZM79 303.5C78.9 303.3 78.8 303.2 78.6 303L78.5 302.9L78.4 302.8C78.3 302.7 78.2 302.6 78.1 302.6C78 302.5 77.8 302.4 77.7 302.3C77.6 302.2 77.5 302.1 77.5 302C77.5 301.9 77.4 301.9 77.4 301.8V301.7V301.6C77.4 301.5 77.4 301.4 77.4 301.4C77.4 301.3 77.4 301.2 77.4 301.1C77.5 301.1 77.7 301.2 77.8 301.2C77.9 301.3 78.1 301.3 78.2 301.4C78.4 301.5 78.6 301.6 78.8 301.7C78.9 301.8 79 301.8 79.1 301.9C79.2 302 79.3 302 79.3 302.1C79.4 302.2 79.4 302.2 79.5 302.3C79.6 302.4 79.6 302.5 79.6 302.6C79.7 302.8 79.7 302.9 79.7 303.1C79.7 303.2 79.7 303.3 79.7 303.4V303.5V303.6C79.7 303.7 79.7 303.8 79.6 303.9C79.6 304 79.5 304.1 79.5 304.1C79.5 304 79.5 304 79.5 303.9C79.2 303.9 79.1 303.7 79 303.5Z" fill="black"/>
<path d="M74.2 309.1C74.2 309.2 74.2 309.3 74.2 309.3C74.4 309.3 74.5 309.2 74.7 309.1C75 309 75.2 308.8 75.4 308.5H75.5H75.6C75.7 308.5 75.9 308.4 76 308.4C76.1 308.3 76.2 308.3 76.3 308.2C76.6 308 76.8 307.8 77 307.5H77.1H77.2C77.3 307.5 77.3 307.4 77.4 307.4C77.5 307.4 77.5 307.3 77.6 307.3C77.7 307.2 77.8 307.1 77.9 307.1C78 307 78.1 306.8 78.2 306.7C78.3 306.6 78.4 306.4 78.4 306.3H78.5C78.6 306.2 78.7 306.1 78.8 306C78.9 305.9 79 305.8 79 305.7C79.1 305.6 79.1 305.5 79.1 305.4L78.9 305.3C78.9 305.4 78.8 305.5 78.8 305.6C78.7 305.8 78.6 305.9 78.5 306C78.5 305.9 78.5 305.9 78.5 305.8C78.5 305.6 78.5 305.4 78.4 305.2C78.4 305.1 78.4 305.1 78.3 305L78 304.8C78.1 304.9 78.1 305.1 78.1 305.3C78.1 305.4 78.1 305.5 78.1 305.6C78.1 305.7 78.1 305.8 78.1 305.9V306V306.1C78.1 306.3 78 306.4 77.9 306.6C77.8 306.7 77.7 306.9 77.6 307C77.5 307.1 77.3 307.2 77.2 307.3C77.2 307.2 77.2 307.2 77.2 307.1C77.3 306.7 77.3 306.3 77.2 306C77.2 305.8 77.1 305.5 77.1 305.3C77.1 305.1 77 305 77 304.8C77 304.7 77 304.6 77 304.4C77 304.3 77 304.3 77 304.2L76.8 304.1C76.8 304.2 76.7 304.3 76.7 304.4C76.6 304.5 76.5 304.5 76.4 304.6C76.3 304.7 76.2 304.7 76.2 304.8C76.1 304.9 76.1 305 76 305.1C76 305.1 76 305.2 75.9 305.2C75.9 305.2 75.9 305.3 75.8 305.3C75.5 305.4 75.3 305.5 75.2 305.7C75 305.8 74.9 306 74.7 306.2C74.4 306.3 74.2 306.3 74 306.4L73.9 306.5C73.9 306.6 73.9 306.7 73.9 306.8C74 306.8 74 306.7 74.1 306.7C74.2 306.6 74.4 306.6 74.6 306.5C74.6 306.7 74.5 306.9 74.5 307.1C74.5 307.2 74.5 307.3 74.4 307.5C74.4 307.6 74.3 307.7 74.3 307.9C74.3 308 74.2 308.2 74.2 308.3C74.2 308.4 74.1 308.5 74 308.7C74.1 308.8 74.2 309 74.2 309.1C74.2 309 74.3 309 74.3 309C74.5 308.7 74.6 308.3 74.7 307.9C74.8 307.7 74.8 307.4 74.8 307.2C74.8 307.1 74.8 307 74.8 307C74.8 306.9 74.8 306.8 74.8 306.8C74.8 306.7 74.9 306.6 75 306.5C75.1 306.4 75.2 306.2 75.4 306.1C75.5 306 75.7 305.9 75.8 305.8C75.8 306.1 75.8 306.4 75.8 306.7C75.8 306.9 75.8 307.1 75.7 307.4C75.7 307.6 75.6 307.8 75.6 308C75.6 308.1 75.5 308.2 75.5 308.2C75.5 308.3 75.4 308.4 75.4 308.4C75.3 308.5 75.2 308.7 75.1 308.8C75 308.9 74.8 309 74.7 309.1C74.5 309 74.3 309.1 74.2 309.1ZM75.7 308.3C75.7 308.2 75.8 308.2 75.8 308.1C76 307.7 76 307.2 76 306.7C76 306.5 76 306.4 76 306.2C76 306.1 76 306 76 306C76 305.9 76 305.8 76 305.8C76 305.7 76 305.6 76.1 305.4C76.2 305.3 76.3 305.1 76.4 305C76.4 304.9 76.5 304.9 76.6 304.8L76.7 304.7L76.8 304.6C76.9 304.8 76.9 305 76.9 305.1C76.9 305.2 77 305.3 77 305.5C77 305.6 77 305.7 77.1 305.9C77.1 306 77.1 306.2 77.1 306.3C77.1 306.4 77.1 306.6 77.1 306.7C77.1 306.8 77.1 306.9 77 307C77 307.1 76.9 307.2 76.9 307.2C76.7 307.5 76.5 307.8 76.2 307.9C76 308.2 75.9 308.3 75.7 308.3Z" fill="black"/>
<path d="M73.2 309.5C73.4 309.4 73.5 309.3 73.7 309.2C73.7 309.3 73.7 309.4 73.7 309.5C73.6 309.6 73.4 309.7 73.3 309.8L73.2 309.5Z" fill="black"/>
<path d="M73.5 307C73.5 307.1 73.5 307.2 73.5 307.3C73.5 307.4 73.4 307.6 73.4 307.7C73.3 307.9 73.3 308 73.2 308.1C73.2 308.2 73.1 308.4 73 308.5C73 308.3 73 308.2 73 308C73 307.9 73 307.9 73.1 307.8C73.2 307.5 73.3 307.3 73.3 307V306.9C73.2 306.9 73 306.9 72.9 307C72.9 306.9 72.9 306.8 72.9 306.8C73 306.8 73 306.8 73.1 306.8C73.2 307 73.4 307 73.5 307Z" fill="black"/>
<path d="M73.6 307.3C73.6 307.2 73.6 307.1 73.6 306.9C73.7 306.8 73.7 306.8 73.8 306.7C73.9 306.7 73.9 306.6 74 306.6C74 306.7 74 306.8 74 306.9C73.9 307 73.9 307 73.8 307.1C73.7 307.2 73.6 307.2 73.6 307.3Z" fill="black"/>
<path d="M73.9 309.4C73.8 309.4 73.8 309.4 73.7 309.5C73.7 309.4 73.7 309.3 73.7 309.2C73.7 309.2 73.7 309.2 73.8 309.1C73.9 309 74 308.8 74.1 308.7C74.1 308.9 74.1 309 74.2 309.2C74.2 309.3 74.2 309.4 74.2 309.4C74.1 309.4 74.1 309.4 73.9 309.4Z" fill="black"/>
<path d="M73.1 308.7V308.8L73 308.5C73 308.4 73.1 308.3 73.1 308.2C73 308.4 73.1 308.5 73.1 308.7Z" fill="black"/>
<path d="M72.8 307.3C72.7 307.3 72.6 307.4 72.5 307.4L72.4 307.2C72.5 307.2 72.6 307.1 72.7 307.1C72.8 307.1 72.8 307.1 72.9 307C72.9 307.1 72.9 307.2 72.9 307.2C72.9 307.3 72.9 307.3 72.8 307.3Z" fill="black"/>
<path d="M73.2 309.5L73.3 309.7C73.3 309.7 73.2 309.7 73.2 309.8C73.2 309.7 73.2 309.6 73.2 309.5Z" fill="black"/>
<path d="M67.2 310.5L67.1 310.4C66.9 310.5 66.7 310.5 66.5 310.5V310.3C66.7 310.3 67 310.2 67.2 310.2C67.4 310.1 67.5 310 67.6 309.9C67.8 309.7 68 309.5 68.2 309.3C68.4 309.1 68.5 308.9 68.6 308.7C68.7 308.6 68.7 308.5 68.8 308.4C68.8 308.6 68.8 308.7 68.7 308.9C68.6 309.1 68.4 309.3 68.3 309.4C68.2 309.6 68.1 309.7 67.9 309.8C67.8 309.9 67.6 310.1 67.5 310.2L67.4 310.3C67.5 310.3 67.7 310.4 67.8 310.4C68 310.4 68.1 310.4 68.3 310.3C68.4 310.3 68.4 310.3 68.5 310.2C68.5 310.3 68.5 310.4 68.5 310.5C68.3 310.6 68.1 310.6 67.9 310.6C67.7 310.6 67.5 310.6 67.2 310.5Z" fill="black"/>
<path d="M68.5 308.2C68.3 308.2 68.1 308.2 68 308.3C67.9 308.3 67.8 308.4 67.7 308.5C67.5 308.7 67.3 309 67.1 309.2C67 309.3 66.8 309.5 66.7 309.6V309.3C66.8 309.2 66.9 309.1 67 308.9C67.2 308.7 67.4 308.5 67.5 308.3C67.3 308.3 67.1 308.2 67 308.2C66.9 308.2 66.8 308.2 66.7 308.2V308C66.8 308 66.9 308 67 308C67.1 308 67.2 308 67.4 308.1C67.5 308.1 67.7 308.2 67.8 308.2C68 308.1 68.2 308.1 68.5 308C68.6 308 68.7 308 68.9 308C68.9 308 68.9 308 69 308C69 308.1 69 308.1 69 308.2C68.7 308.2 68.6 308.2 68.5 308.2Z" fill="black"/>
<path d="M69.3 308C69.2 308 69.1 307.9 68.9 307.9C68.9 308 68.9 308 68.9 308.1H69C68.9 308.2 68.9 308.2 68.8 308.3C68.8 308.5 68.8 308.6 68.7 308.8C68.7 308.8 68.7 308.8 68.7 308.7C68.8 308.6 68.9 308.4 69 308.3C69.1 308.2 69.2 308.1 69.3 308.1C69.4 308 69.6 308 69.8 307.9C70 307.9 70.1 307.9 70.3 307.9C70.1 308.2 70 308.4 69.9 308.7C69.8 308.9 69.7 309.1 69.5 309.3C69.4 309.5 69.2 309.6 69.1 309.8C69 309.9 68.8 310 68.7 310.1C68.6 310.1 68.5 310.2 68.5 310.2C68.5 310.3 68.5 310.4 68.5 310.5C68.6 310.5 68.7 310.4 68.7 310.4H68.8C69 310.5 69.3 310.5 69.5 310.5C69.7 310.5 69.8 310.5 69.9 310.4C70 310.4 70.2 310.3 70.3 310.2H70.4H70.5C70.7 310.2 71 310.2 71.2 310.2C71.4 310.2 71.5 310.1 71.6 310.1C71.7 310 71.9 310 72 309.9H72.1H72.2C72.5 309.9 72.7 309.9 72.9 309.8H73C73 309.7 73 309.6 73 309.6C72.9 309.6 72.9 309.6 72.8 309.7C72.7 309.7 72.5 309.8 72.4 309.8L72.5 309.7C72.6 309.5 72.7 309.4 72.8 309.2C72.8 309.1 72.9 309.1 72.9 309L72.8 308.7C72.7 308.8 72.7 309 72.6 309.1C72.5 309.2 72.5 309.3 72.4 309.4C72.3 309.5 72.2 309.7 72 309.8C71.9 309.9 71.7 310 71.6 310.1C71.5 310.2 71.3 310.2 71.1 310.3C71 310.3 70.8 310.3 70.7 310.3L70.8 310.2C70.9 310.1 71 309.9 71.1 309.8C71.2 309.6 71.3 309.5 71.4 309.3C71.5 309.1 71.6 308.9 71.7 308.6C71.8 308.4 71.8 308.3 71.9 308.2C72 308.1 72 308 72.2 307.9C72.3 307.9 72.3 307.8 72.4 307.8L72.3 307.6C72.2 307.7 72.1 307.7 72 307.8C71.9 307.8 71.7 307.8 71.6 307.8C71.5 307.8 71.3 307.8 71.2 307.9C71.1 307.9 71 308 70.8 308C70.7 308 70.6 308.1 70.5 308.2C70.2 308.2 69.9 308.2 69.7 308.2C69.7 307.9 69.4 307.9 69.3 308ZM70.6 308.2C70.7 308.1 70.8 308 70.9 307.9C71 307.8 71.2 307.7 71.4 307.7C71.6 307.7 71.7 307.6 71.9 307.6C71.8 307.8 71.7 307.9 71.7 308.1C71.6 308.3 71.5 308.5 71.4 308.8C71.3 309.1 71.1 309.3 70.9 309.5C70.8 309.6 70.7 309.7 70.5 309.8C70.4 309.9 70.2 310 70.1 310C69.9 310.1 69.8 310.1 69.6 310.1C69.5 310.1 69.4 310.1 69.4 310.1C69.3 310.1 69.3 310.1 69.2 310.1L69.3 310C69.5 309.8 69.6 309.7 69.7 309.5C69.8 309.3 70 309.1 70.1 308.9C70.3 308.8 70.5 308.5 70.6 308.2Z" fill="black"/>
<path d="M66.5 308.2C66.4 308.2 66.2 308.3 66.1 308.4C66 308.5 65.9 308.6 65.7 308.7C65.5 308.9 65.3 309 65.2 309.2C65.1 309.3 64.9 309.4 64.8 309.6H64.7V309.7C64.6 309.8 64.6 309.8 64.5 309.9L64.4 310C64.5 310 64.5 310 64.6 310H64.7H64.8H64.9C65 310 65.1 310 65.1 310C65.3 310 65.4 310 65.6 309.9C65.8 309.8 65.9 309.8 66.1 309.7C66.2 309.6 66.3 309.6 66.4 309.5C66.5 309.4 66.6 309.3 66.7 309.2V309.5C66.6 309.6 66.6 309.6 66.5 309.6C66.4 309.7 66.2 309.9 66 310L65.9 310.1C66 310.2 66.2 310.2 66.3 310.2C66.4 310.2 66.5 310.2 66.6 310.2V310.4C66.5 310.4 66.4 310.4 66.3 310.4C66.2 310.4 66.1 310.4 65.9 310.3C65.8 310.3 65.7 310.2 65.6 310.2H65.5C65.4 310.2 65.4 310.2 65.3 310.2C65.2 310.2 65.2 310.2 65.1 310.2C65 310.2 64.9 310.2 64.9 310.2H64.8H64.7H64.6C64.5 310.2 64.4 310.1 64.3 310.1H64.2C64.1 310.2 64 310.2 63.8 310.2C63.7 310.2 63.6 310.1 63.5 310.1C63.7 310.1 64 310 64.2 309.8C64.3 309.7 64.5 309.6 64.6 309.5C64.7 309.4 64.8 309.3 64.9 309.2C64.9 309.2 65 309.2 65 309.1L65.1 309C65.2 309 65.2 308.9 65.3 308.9C65.5 308.7 65.7 308.6 65.8 308.4C65.9 308.3 66.1 308.1 66.2 308C66 307.9 65.9 307.9 65.7 307.9C65.6 307.9 65.5 307.9 65.4 307.9H65.3C65.3 307.9 65.3 307.9 65.2 307.9H65.1H65C64.9 307.9 64.9 307.9 64.9 307.9C64.8 307.9 64.8 308 64.7 308C64.4 308.2 64.2 308.5 64 308.7C63.7 309.1 63.5 309.4 63.3 309.8C63.2 309.8 63.2 309.7 63.1 309.7L63.2 309.6C63.4 309.3 63.6 308.9 63.9 308.5C64.1 308.3 64.3 308 64.5 307.8C64.3 307.7 64.1 307.7 63.8 307.7C63.6 307.7 63.3 307.8 63.2 307.9C63 308 62.9 308.1 62.8 308.2C62.7 308.3 62.6 308.5 62.5 308.7C62.4 308.8 62.4 308.9 62.3 309C62.3 309.1 62.2 309.2 62.2 309.2C62.1 309.2 62.1 309.1 62 309.1C62.1 308.9 62.1 308.7 62.2 308.6C62.3 308.4 62.4 308.2 62.5 308.1C62.4 308.1 62.3 308.1 62.1 308.1C62 308.1 61.9 308.2 61.8 308.2C61.7 308.2 61.6 308.3 61.5 308.4C61.4 308.4 61.3 308.5 61.3 308.6C61.2 308.5 61.2 308.5 61.1 308.4C61.2 308.4 61.2 308.3 61.3 308.3C61.4 308.2 61.6 308.1 61.8 308C62.1 307.9 62.5 307.8 62.9 307.8C63.1 307.7 63.4 307.6 63.8 307.6C64.1 307.6 64.5 307.6 64.8 307.7H64.9C65 307.7 65 307.7 65.1 307.7C65.2 307.7 65.2 307.7 65.2 307.7H65.3C65.4 307.7 65.5 307.7 65.7 307.7C65.8 307.7 65.9 307.7 66.1 307.8C66.2 307.8 66.4 307.9 66.5 308C66.6 308 66.8 307.9 66.9 307.9V308.1C66.6 308.2 66.5 308.2 66.5 308.2Z" fill="black"/>
<path d="M62.9 315.5L62.8 315.4C62.8 315.5 62.9 315.5 62.9 315.5Z" fill="black"/>
<path d="M62.9 315.5L63 315.6C63 315.6 62.9 315.6 62.9 315.5Z" fill="black"/>
<path d="M59.5 311C59.4 310.9 59.4 310.9 59.3 310.8C59.3 310.9 59.2 311 59.2 311.1V311.2V311.3C59.2 311.4 59.2 311.5 59.2 311.6C59.2 312 59.3 312.3 59.4 312.6C59.4 312.7 59.4 312.8 59.4 312.9C59.4 313 59.4 313.1 59.4 313.2C59.4 313.4 59.4 313.5 59.5 313.7C59.6 314 59.7 314.3 59.9 314.5C59.9 314.7 59.9 314.8 60 315C60 315.2 60.1 315.3 60.1 315.4C60.2 315.7 60.4 315.9 60.6 316.1C60.7 316.4 60.8 316.7 60.9 317V317.1L61.1 317V316.9C61 316.7 60.9 316.5 60.9 316.3H61C61.3 316.4 61.6 316.4 61.8 316.5H61.9L62.2 316.3C62.1 316.3 62.1 316.3 62 316.3C61.7 316.2 61.4 316.2 61.1 316.1C61 316.1 60.9 316 60.8 315.9C60.7 315.8 60.7 315.8 60.6 315.7C60.5 315.6 60.5 315.5 60.4 315.4C60.3 315.2 60.3 315 60.2 314.8C60.4 314.9 60.6 314.9 60.8 315C61 315.1 61.3 315.1 61.5 315.2C61.8 315.3 62.1 315.4 62.3 315.4C62.4 315.5 62.6 315.5 62.7 315.6C62.8 315.7 62.9 315.8 63 315.8L63.2 315.7L63.1 315.6L63 315.5V315.4C63 315.2 62.9 315 62.8 314.8C62.7 314.6 62.5 314.4 62.3 314.2V314.1C62.3 313.9 62.3 313.7 62.2 313.5C62.2 313.4 62.2 313.4 62.1 313.3C61.9 313.2 61.7 313 61.6 312.9L61.7 313C61.7 313.1 61.8 313.1 61.8 313.2C61.9 313.3 61.9 313.4 62 313.6C62 313.7 62.1 313.8 62.1 314L62 313.9C61.8 313.8 61.6 313.7 61.4 313.6C61.2 313.5 61 313.4 60.8 313.3C60.7 313.2 60.5 313.2 60.4 313.1C60.3 313 60.1 312.9 60 312.8C59.9 312.7 59.8 312.6 59.7 312.4C59.7 312.3 59.6 312.2 59.6 312.1C59.6 312 59.6 311.9 59.6 311.7C59.6 311.6 59.6 311.5 59.6 311.3C59.4 311.2 59.4 311.1 59.5 311ZM59.5 312.9C59.8 313.1 60 313.2 60.3 313.4C60.5 313.5 60.7 313.6 60.9 313.7C61.1 313.8 61.3 313.9 61.5 314C61.6 314.1 61.8 314.2 61.9 314.3C62.1 314.5 62.3 314.7 62.4 315C62.5 315.1 62.5 315.2 62.5 315.4C62.5 315.4 62.4 315.4 62.4 315.3C62.2 315.2 62.1 315.2 61.9 315.1C61.7 315.1 61.5 315 61.4 315C61.2 314.9 60.9 314.9 60.7 314.8C60.5 314.7 60.4 314.7 60.2 314.6C60.1 314.5 60 314.4 59.9 314.3C59.8 314.1 59.7 313.9 59.6 313.7C59.5 313.3 59.5 313.1 59.5 312.9Z" fill="black"/>
<path d="M63 315.6L63.3 315.5L63 315.6Z" fill="black"/>
<path d="M60.9 317.1L61.1 317C61 316.9 61 316.9 61 316.8L61.7 316.4C61.8 316.4 62 316.4 62.1 316.5L62.4 316.3C62.3 316.3 62.2 316.3 62 316.2L62.8 315.7C62.9 315.8 62.9 315.8 63 315.9L63.2 315.8C63.2 315.7 63.1 315.7 63 315.6L63.3 315.4L63.5 315.8L60.7 317.4L60.5 317L60.7 316.9C60.8 317 60.9 317.1 60.9 317.1Z" fill="black"/>
<path d="M62.1 316.4C62 316.4 61.9 316.4 61.7 316.3L62 316.1C62.1 316.1 62.2 316.1 62.4 316.2L62.1 316.4Z" fill="black"/>
<path d="M60.9 317.1C60.8 317 60.8 317 60.8 316.9L61 316.8C61 316.9 61.1 316.9 61.1 317L60.9 317.1Z" fill="black"/>
<path d="M63 315.6C63.1 315.7 63.1 315.7 63.2 315.8L63 315.9C63 315.8 62.9 315.8 62.8 315.7L63 315.6Z" fill="black"/>
<path d="M143.5 251.2C143.5 251.2 119.6 233.7 77 238.7C34.4 243.6 21.6 249 6.70001 251.2C6.70001 251.2 21 253.1 41.4 249.3C61.8 245.5 116.5 236.3 141.3 251.7L145.8 251.2" fill="#DCDCDC"/>
<path d="M174.8 252.7H6.70001L36.4 229.8H174.8V252.7Z" fill="#3A3A3A"/>
<path d="M148.4 252.7V259.4L0.700012 255.7C0.700012 255.7 32.1 229.8 36.3 229.8L6.60001 252.7H148.4Z" fill="#00A3D3"/>
<path d="M174.8 252.7H316.5L286.8 229.8H148.4L174.8 252.7Z" fill="#3A3A3A"/>
<path d="M174.8 252.7V259.4L322.5 255.7C322.5 255.7 291.1 229.8 286.9 229.8L316.6 252.7H174.8Z" fill="#00A3D3"/>
<path d="M143.5 252.7C143.5 252.7 146.7 266.4 160.9 266.4C175.1 266.4 180.2 252.7 180.2 252.7H143.5Z" fill="#00A3D3"/>
<path d="M143.5 251.2C143.5 251.2 151.3 258.4 162 258.4C172.6 258.4 179.7 251.2 179.7 251.2H143.5Z" fill="#3A3A3A"/>
<path d="M319 237.8L313.9 231.9C288.4 228.9 243.6 228.6 243.6 228.6C283.9 224.2 316.9 228.6 316.9 228.6C313.3 213.6 303.6 209.3 303.6 209.3C221.4 216.4 201.9 230.7 201.9 230.7C236 201 309.2 203.1 309.2 203.1C292.1 157.5 267 150.5 267 150.5C224.7 174.1 180 229.7 180 229.7C219.7 166.9 268.7 142.9 268.7 142.9L252.5 139.4C203.9 178.1 180.1 218.3 180.1 218.3C199.4 175.1 254.6 132.3 254.6 132.3L245 130.8C220.6 148.8 188.7 194.2 188.7 194.2C207.3 158.7 243.7 124 243.7 124H220.7C173.4 152.9 164.1 219.7 163 229.9C161.8 219.7 152.6 153 105.3 124H82.3C82.3 124 118.7 158.8 137.3 194.2C137.3 194.2 105.4 148.8 81 130.8L71.4 132.3C71.4 132.3 126.6 175.1 145.9 218.3C145.9 218.3 122 178.1 73.5 139.4L57.3 142.9C57.3 142.9 106.2 166.9 146 229.7C146 229.7 101.3 174.1 59 150.5C59 150.5 33.8 157.5 16.8 203.1C16.8 203.1 88.9 209.3 119.7 230.4C119.7 230.4 71.8 210 22.4 209.3C22.4 209.3 12.8 213.6 9.1 228.6C9.1 228.6 42.1 224.2 82.4 228.6C82.4 228.6 37.6 228.9 12.1 231.9L7 237.8L22.8 234.7L7.5 250.2C7.5 250.2 30.8 251.1 51.9 246.5C73 241.9 126.8 233.1 147 250.2H177.3C197.5 233.1 253.2 241.8 274.3 246.5C295.4 251.1 318.7 250.2 318.7 250.2L303.4 234.7L319 237.8Z" fill="#CECECE"/>
<path d="M76.5 177.3C85.1 174.7 99.6 181.1 120 190.2C155.9 206.2 205 228.1 258.7 217.2C280.2 212.8 300.7 203.3 319.8 188.8C323.1 173.8 320.8 158 320.8 158C268.6 193.3 211.3 155.7 211.3 155.7C91 57 39 96.8 39 96.8C48 130.3 59 158.1 69.9 180.3C71.9 179.1 74 178 76.5 177.3Z" fill="#464353"/>
<path d="M200.7 59.5C199.5 54.4 196 54.4 191.8 55.4C187.6 56.3 184.4 57.8 185.5 62.9L189.6 81.2L206.1 83.9L200.7 59.5Z" fill="#464353"/>
<path d="M229.8 67.6C228.6 62.5 225.1 62.5 220.9 63.5C216.7 64.4 213.5 65.9 214.6 71L218.7 89.3L236 95.5L229.8 67.6Z" fill="#464353"/>
<path d="M275.1 125.6C218.3 78.4 173.4 80.8 149.1 88.1C148.7 88.2 148.4 88.3 148 88.4C147.7 88.5 147.5 88.6 147.2 88.6C146.1 89 145.2 89.4 144.2 89.9C144.1 89.9 144 90 143.9 90C143.2 90.3 142.6 90.7 142 91C138.8 92.7 136.1 94.6 133.8 96.6C129.3 100.6 129.5 100.3 128.1 103C132.6 96 140.9 98 151.9 97.2C161.2 96.6 170.2 97.3 174.6 97.7L184.1 135C239.2 189.5 296.6 171 296.6 171L275.1 125.6ZM193.8 99.3L212.2 106.1L214.9 118L196.5 111.2L193.8 99.3ZM218.9 135L200.5 128.2L197.8 116.3L216.2 123.1L218.9 135ZM216.5 107.3L234.9 114.1L237.6 126L219.2 119.2L216.5 107.3ZM241.6 143.1L223.2 136.3L220.5 124.4L238.9 131.2L241.6 143.1ZM238.9 115L257.3 121.8L260 133.7L241.6 126.9L238.9 115ZM263.9 150.7L245.5 143.9L242.8 132L261.2 138.8L263.9 150.7Z" fill="#FDD835"/>
<path d="M63.8 221.2C63.8 221.2 50.4 188 79.5 182.1C108.7 176.2 212.3 267.6 331.3 198C331.3 198 297 245.1 216.2 243.4C191.7 242.9 167.5 237.7 144.7 228.6L91.9 207.7C91.8 207.6 63.9 196.5 63.8 221.2Z" fill="#00A3D3"/>
<path d="M201.1 61.1L199.1 53L184 56.7L186 64.8C186.1 65.4 190 66.6 194.2 65.5C198.4 64.5 201.3 61.7 201.1 61.1Z" fill="url(#paint0_linear)"/>
<path d="M192.3 61.5C194.1 61.1 200.1 57 199.9 56.4L199 52.9L183.9 56.6L184.8 60.1C185 60.7 190.4 62 192.3 61.5Z" fill="#1B1B1B"/>
<path d="M192.9 51C192.9 51 175.3 57.8 175.3 58C175.3 58.2 191.2 59.1 191.5 59C191.8 58.9 208.3 49.5 208.6 49.3C208.8 49.1 192.9 51 192.9 51Z" fill="#222221"/>
<path d="M175.2 58L175.1 57.7L208.4 49L208.5 49.3L191.4 59.1L175.2 58Z" fill="#222221"/>
<path d="M192.8 50.7C192.8 50.7 175.2 57.5 175.2 57.7C175.2 57.9 191.1 58.8 191.4 58.7C191.7 58.6 208.2 49.2 208.5 49C208.7 48.8 192.8 50.7 192.8 50.7Z" fill="url(#paint1_linear)"/>
<path d="M182.4 65.5C182.4 65.4 180.9 60.4 180.6 59.7C180.3 59 180.7 58.7 180.7 58.7C180.8 58.7 190.4 54.4 191.9 53.9V54C190.4 54.5 180.8 58.8 180.7 58.8C180.7 58.8 180.4 59 180.7 59.7C181 60.3 182.4 65.2 182.4 65.5Z" fill="#E09F39"/>
<path d="M182 65.6C182 65.6 182.7 67.3 182.7 68.1C182.7 68.9 183.7 68.4 183.9 68.2C184.1 68 183.6 67.6 183.4 67.1C183.2 66.6 182.9 65.3 182.9 65.3L182 65.6Z" fill="#E7A43D"/>
<path d="M182.3 65.9C182.3 65.9 182.9 67.4 183 68.3C183 68.1 182.7 66.5 182.3 65.9Z" fill="#E09F39"/>
<path d="M182.5 66C182.5 66 183.3 68 183.3 68.4C183.2 67.9 182.8 66.5 182.5 66Z" fill="#E09F39"/>
<path d="M182.8 65.9C182.8 65.9 183.2 67.6 183.6 68.1C183.3 67.6 182.9 66.4 182.8 65.9Z" fill="#E09F39"/>
<path d="M182.8 65.5C182.8 65.4 182.8 65.4 182.8 65.5L182 65.7C182 65.7 182 65.7 182.1 65.8L182.8 65.5Z" fill="#D89935"/>
<path d="M182.8 65.4L182.7 65.1C182.6 64.8 182.4 64.7 182.1 64.7C181.9 64.8 181.8 65.1 181.9 65.3L182 65.6L182.8 65.4Z" fill="#E09F39"/>
<path d="M182.1 64.8C182.1 64.8 181.9 64.9 181.9 65.3C182 65.1 182.1 64.8 182.1 64.8Z" fill="#DFB232"/>
<path d="M191.9 54.1C192.066 54.1 192.2 53.9657 192.2 53.8C192.2 53.6343 192.066 53.5 191.9 53.5C191.734 53.5 191.6 53.6343 191.6 53.8C191.6 53.9657 191.734 54.1 191.9 54.1Z" fill="url(#paint2_linear)"/>
<defs>
<linearGradient id="paint0_linear" x1="185.316" y1="62.0374" x2="200.412" y2="58.3003" gradientUnits="userSpaceOnUse">
<stop stop-color="#2B2B2A"/>
<stop offset="1" stop-color="#222221"/>
</linearGradient>
<linearGradient id="paint1_linear" x1="175.42" y1="58.8292" x2="208.83" y2="50.5586" gradientUnits="userSpaceOnUse">
<stop stop-color="#2B2B2A"/>
<stop offset="1" stop-color="#222221"/>
</linearGradient>
<linearGradient id="paint2_linear" x1="191.643" y1="53.8636" x2="192.248" y2="53.7139" gradientUnits="userSpaceOnUse">
<stop stop-color="#222221"/>
<stop offset="1" stop-color="#292928"/>
</linearGradient>
</defs>
</svg>
